<?xml version="1.0" encoding="utf-8" standalone="no"?>
<!DOCTYPE svg PUBLIC "-//W3C//DTD SVG 1.1//EN"
  "http://www.w3.org/Graphics/SVG/1.1/DTD/svg11.dtd">
<svg xmlns:xlink="http://www.w3.org/1999/xlink" width="641.99952pt" height="526.79952pt" viewBox="0 0 641.99952 526.79952" xmlns="http://www.w3.org/2000/svg" version="1.1">
 <metadata>
  <rdf:RDF xmlns:dc="http://purl.org/dc/elements/1.1/" xmlns:cc="http://creativecommons.org/ns#" xmlns:rdf="http://www.w3.org/1999/02/22-rdf-syntax-ns#">
   <cc:Work>
    <dc:type rdf:resource="http://purl.org/dc/dcmitype/StillImage"/>
    <dc:date>2026-04-28T23:45:04.713767</dc:date>
    <dc:format>image/svg+xml</dc:format>
    <dc:creator>
     <cc:Agent>
      <dc:title>Matplotlib v3.8.4, https://matplotlib.org/</dc:title>
     </cc:Agent>
    </dc:creator>
   </cc:Work>
  </rdf:RDF>
 </metadata>
 <defs>
  <style type="text/css">*{stroke-linejoin: round; stroke-linecap: butt}</style>
 </defs>
 <g id="figure_1">
  <g id="patch_1">
   <path d="M 0 526.79952 
L 641.99952 526.79952 
L 641.99952 0 
L 0 0 
z
" style="fill: #ffffff"/>
  </g>
  <g id="axes_1">
   <g id="patch_2">
    <path d="M 52.275 331.543976 
L 634.79952 331.543976 
L 634.79952 11.379141 
L 52.275 11.379141 
z
" style="fill: #ffffff"/>
   </g>
   <g id="matplotlib.axis_1">
    <g id="xtick_1">
     <g id="line2d_1">
      <path d="M 78.753387 331.543976 
L 78.753387 11.379141 
" clip-path="url(#p6c182d6dca)" style="fill: none; stroke: #f2f2f2; stroke-width: 0.6; stroke-linecap: square"/>
     </g>
     <g id="line2d_2">
      <defs>
       <path id="m60f25d6637" d="M 0 0 
L 0 3.5 
" style="stroke: #000000; stroke-width: 0.8"/>
      </defs>
      <g>
       <use xlink:href="#m60f25d6637" x="78.753387" y="331.543976" style="stroke: #000000; stroke-width: 0.8"/>
      </g>
     </g>
     <g id="text_1">
      <!-- 5 -->
      <g transform="translate(75.254012 346.402257) scale(0.11 -0.11)">
       <defs>
        <path id="DejaVuSans-35" d="M 691 4666 
L 3169 4666 
L 3169 4134 
L 1269 4134 
L 1269 2991 
Q 1406 3038 1543 3061 
Q 1681 3084 1819 3084 
Q 2600 3084 3056 2656 
Q 3513 2228 3513 1497 
Q 3513 744 3044 326 
Q 2575 -91 1722 -91 
Q 1428 -91 1123 -41 
Q 819 9 494 109 
L 494 744 
Q 775 591 1075 516 
Q 1375 441 1709 441 
Q 2250 441 2565 725 
Q 2881 1009 2881 1497 
Q 2881 1984 2565 2268 
Q 2250 2553 1709 2553 
Q 1456 2553 1204 2497 
Q 953 2441 691 2322 
L 691 4666 
z
" transform="scale(0.015625)"/>
       </defs>
       <use xlink:href="#DejaVuSans-35"/>
      </g>
     </g>
    </g>
    <g id="xtick_2">
     <g id="line2d_3">
      <path d="M 184.666936 331.543976 
L 184.666936 11.379141 
" clip-path="url(#p6c182d6dca)" style="fill: none; stroke: #f2f2f2; stroke-width: 0.6; stroke-linecap: square"/>
     </g>
     <g id="line2d_4">
      <g>
       <use xlink:href="#m60f25d6637" x="184.666936" y="331.543976" style="stroke: #000000; stroke-width: 0.8"/>
      </g>
     </g>
     <g id="text_2">
      <!-- 10 -->
      <g transform="translate(177.668186 346.402257) scale(0.11 -0.11)">
       <defs>
        <path id="DejaVuSans-31" d="M 794 531 
L 1825 531 
L 1825 4091 
L 703 3866 
L 703 4441 
L 1819 4666 
L 2450 4666 
L 2450 531 
L 3481 531 
L 3481 0 
L 794 0 
L 794 531 
z
" transform="scale(0.015625)"/>
        <path id="DejaVuSans-30" d="M 2034 4250 
Q 1547 4250 1301 3770 
Q 1056 3291 1056 2328 
Q 1056 1369 1301 889 
Q 1547 409 2034 409 
Q 2525 409 2770 889 
Q 3016 1369 3016 2328 
Q 3016 3291 2770 3770 
Q 2525 4250 2034 4250 
z
M 2034 4750 
Q 2819 4750 3233 4129 
Q 3647 3509 3647 2328 
Q 3647 1150 3233 529 
Q 2819 -91 2034 -91 
Q 1250 -91 836 529 
Q 422 1150 422 2328 
Q 422 3509 836 4129 
Q 1250 4750 2034 4750 
z
" transform="scale(0.015625)"/>
       </defs>
       <use xlink:href="#DejaVuSans-31"/>
       <use xlink:href="#DejaVuSans-30" x="63.623047"/>
      </g>
     </g>
    </g>
    <g id="xtick_3">
     <g id="line2d_5">
      <path d="M 290.580485 331.543976 
L 290.580485 11.379141 
" clip-path="url(#p6c182d6dca)" style="fill: none; stroke: #f2f2f2; stroke-width: 0.6; stroke-linecap: square"/>
     </g>
     <g id="line2d_6">
      <g>
       <use xlink:href="#m60f25d6637" x="290.580485" y="331.543976" style="stroke: #000000; stroke-width: 0.8"/>
      </g>
     </g>
     <g id="text_3">
      <!-- 15 -->
      <g transform="translate(283.581735 346.402257) scale(0.11 -0.11)">
       <use xlink:href="#DejaVuSans-31"/>
       <use xlink:href="#DejaVuSans-35" x="63.623047"/>
      </g>
     </g>
    </g>
    <g id="xtick_4">
     <g id="line2d_7">
      <path d="M 396.494035 331.543976 
L 396.494035 11.379141 
" clip-path="url(#p6c182d6dca)" style="fill: none; stroke: #f2f2f2; stroke-width: 0.6; stroke-linecap: square"/>
     </g>
     <g id="line2d_8">
      <g>
       <use xlink:href="#m60f25d6637" x="396.494035" y="331.543976" style="stroke: #000000; stroke-width: 0.8"/>
      </g>
     </g>
     <g id="text_4">
      <!-- 20 -->
      <g transform="translate(389.495285 346.402257) scale(0.11 -0.11)">
       <defs>
        <path id="DejaVuSans-32" d="M 1228 531 
L 3431 531 
L 3431 0 
L 469 0 
L 469 531 
Q 828 903 1448 1529 
Q 2069 2156 2228 2338 
Q 2531 2678 2651 2914 
Q 2772 3150 2772 3378 
Q 2772 3750 2511 3984 
Q 2250 4219 1831 4219 
Q 1534 4219 1204 4116 
Q 875 4013 500 3803 
L 500 4441 
Q 881 4594 1212 4672 
Q 1544 4750 1819 4750 
Q 2544 4750 2975 4387 
Q 3406 4025 3406 3419 
Q 3406 3131 3298 2873 
Q 3191 2616 2906 2266 
Q 2828 2175 2409 1742 
Q 1991 1309 1228 531 
z
" transform="scale(0.015625)"/>
       </defs>
       <use xlink:href="#DejaVuSans-32"/>
       <use xlink:href="#DejaVuSans-30" x="63.623047"/>
      </g>
     </g>
    </g>
    <g id="xtick_5">
     <g id="line2d_9">
      <path d="M 502.407584 331.543976 
L 502.407584 11.379141 
" clip-path="url(#p6c182d6dca)" style="fill: none; stroke: #f2f2f2; stroke-width: 0.6; stroke-linecap: square"/>
     </g>
     <g id="line2d_10">
      <g>
       <use xlink:href="#m60f25d6637" x="502.407584" y="331.543976" style="stroke: #000000; stroke-width: 0.8"/>
      </g>
     </g>
     <g id="text_5">
      <!-- 25 -->
      <g transform="translate(495.408834 346.402257) scale(0.11 -0.11)">
       <use xlink:href="#DejaVuSans-32"/>
       <use xlink:href="#DejaVuSans-35" x="63.623047"/>
      </g>
     </g>
    </g>
    <g id="xtick_6">
     <g id="line2d_11">
      <path d="M 608.321133 331.543976 
L 608.321133 11.379141 
" clip-path="url(#p6c182d6dca)" style="fill: none; stroke: #f2f2f2; stroke-width: 0.6; stroke-linecap: square"/>
     </g>
     <g id="line2d_12">
      <g>
       <use xlink:href="#m60f25d6637" x="608.321133" y="331.543976" style="stroke: #000000; stroke-width: 0.8"/>
      </g>
     </g>
     <g id="text_6">
      <!-- 30 -->
      <g transform="translate(601.322383 346.402257) scale(0.11 -0.11)">
       <defs>
        <path id="DejaVuSans-33" d="M 2597 2516 
Q 3050 2419 3304 2112 
Q 3559 1806 3559 1356 
Q 3559 666 3084 287 
Q 2609 -91 1734 -91 
Q 1441 -91 1130 -33 
Q 819 25 488 141 
L 488 750 
Q 750 597 1062 519 
Q 1375 441 1716 441 
Q 2309 441 2620 675 
Q 2931 909 2931 1356 
Q 2931 1769 2642 2001 
Q 2353 2234 1838 2234 
L 1294 2234 
L 1294 2753 
L 1863 2753 
Q 2328 2753 2575 2939 
Q 2822 3125 2822 3475 
Q 2822 3834 2567 4026 
Q 2313 4219 1838 4219 
Q 1578 4219 1281 4162 
Q 984 4106 628 3988 
L 628 4550 
Q 988 4650 1302 4700 
Q 1616 4750 1894 4750 
Q 2613 4750 3031 4423 
Q 3450 4097 3450 3541 
Q 3450 3153 3228 2886 
Q 3006 2619 2597 2516 
z
" transform="scale(0.015625)"/>
       </defs>
       <use xlink:href="#DejaVuSans-33"/>
       <use xlink:href="#DejaVuSans-30" x="63.623047"/>
      </g>
     </g>
    </g>
    <g id="text_7">
     <!-- Minimum history of products in set -->
     <g transform="translate(230.222963 366.567882) scale(0.13 -0.13)">
      <defs>
       <path id="DejaVuSans-4d" d="M 628 4666 
L 1569 4666 
L 2759 1491 
L 3956 4666 
L 4897 4666 
L 4897 0 
L 4281 0 
L 4281 4097 
L 3078 897 
L 2444 897 
L 1241 4097 
L 1241 0 
L 628 0 
L 628 4666 
z
" transform="scale(0.015625)"/>
       <path id="DejaVuSans-69" d="M 603 3500 
L 1178 3500 
L 1178 0 
L 603 0 
L 603 3500 
z
M 603 4863 
L 1178 4863 
L 1178 4134 
L 603 4134 
L 603 4863 
z
" transform="scale(0.015625)"/>
       <path id="DejaVuSans-6e" d="M 3513 2113 
L 3513 0 
L 2938 0 
L 2938 2094 
Q 2938 2591 2744 2837 
Q 2550 3084 2163 3084 
Q 1697 3084 1428 2787 
Q 1159 2491 1159 1978 
L 1159 0 
L 581 0 
L 581 3500 
L 1159 3500 
L 1159 2956 
Q 1366 3272 1645 3428 
Q 1925 3584 2291 3584 
Q 2894 3584 3203 3211 
Q 3513 2838 3513 2113 
z
" transform="scale(0.015625)"/>
       <path id="DejaVuSans-6d" d="M 3328 2828 
Q 3544 3216 3844 3400 
Q 4144 3584 4550 3584 
Q 5097 3584 5394 3201 
Q 5691 2819 5691 2113 
L 5691 0 
L 5113 0 
L 5113 2094 
Q 5113 2597 4934 2840 
Q 4756 3084 4391 3084 
Q 3944 3084 3684 2787 
Q 3425 2491 3425 1978 
L 3425 0 
L 2847 0 
L 2847 2094 
Q 2847 2600 2669 2842 
Q 2491 3084 2119 3084 
Q 1678 3084 1418 2786 
Q 1159 2488 1159 1978 
L 1159 0 
L 581 0 
L 581 3500 
L 1159 3500 
L 1159 2956 
Q 1356 3278 1631 3431 
Q 1906 3584 2284 3584 
Q 2666 3584 2933 3390 
Q 3200 3197 3328 2828 
z
" transform="scale(0.015625)"/>
       <path id="DejaVuSans-75" d="M 544 1381 
L 544 3500 
L 1119 3500 
L 1119 1403 
Q 1119 906 1312 657 
Q 1506 409 1894 409 
Q 2359 409 2629 706 
Q 2900 1003 2900 1516 
L 2900 3500 
L 3475 3500 
L 3475 0 
L 2900 0 
L 2900 538 
Q 2691 219 2414 64 
Q 2138 -91 1772 -91 
Q 1169 -91 856 284 
Q 544 659 544 1381 
z
M 1991 3584 
L 1991 3584 
z
" transform="scale(0.015625)"/>
       <path id="DejaVuSans-20" transform="scale(0.015625)"/>
       <path id="DejaVuSans-68" d="M 3513 2113 
L 3513 0 
L 2938 0 
L 2938 2094 
Q 2938 2591 2744 2837 
Q 2550 3084 2163 3084 
Q 1697 3084 1428 2787 
Q 1159 2491 1159 1978 
L 1159 0 
L 581 0 
L 581 4863 
L 1159 4863 
L 1159 2956 
Q 1366 3272 1645 3428 
Q 1925 3584 2291 3584 
Q 2894 3584 3203 3211 
Q 3513 2838 3513 2113 
z
" transform="scale(0.015625)"/>
       <path id="DejaVuSans-73" d="M 2834 3397 
L 2834 2853 
Q 2591 2978 2328 3040 
Q 2066 3103 1784 3103 
Q 1356 3103 1142 2972 
Q 928 2841 928 2578 
Q 928 2378 1081 2264 
Q 1234 2150 1697 2047 
L 1894 2003 
Q 2506 1872 2764 1633 
Q 3022 1394 3022 966 
Q 3022 478 2636 193 
Q 2250 -91 1575 -91 
Q 1294 -91 989 -36 
Q 684 19 347 128 
L 347 722 
Q 666 556 975 473 
Q 1284 391 1588 391 
Q 1994 391 2212 530 
Q 2431 669 2431 922 
Q 2431 1156 2273 1281 
Q 2116 1406 1581 1522 
L 1381 1569 
Q 847 1681 609 1914 
Q 372 2147 372 2553 
Q 372 3047 722 3315 
Q 1072 3584 1716 3584 
Q 2034 3584 2315 3537 
Q 2597 3491 2834 3397 
z
" transform="scale(0.015625)"/>
       <path id="DejaVuSans-74" d="M 1172 4494 
L 1172 3500 
L 2356 3500 
L 2356 3053 
L 1172 3053 
L 1172 1153 
Q 1172 725 1289 603 
Q 1406 481 1766 481 
L 2356 481 
L 2356 0 
L 1766 0 
Q 1100 0 847 248 
Q 594 497 594 1153 
L 594 3053 
L 172 3053 
L 172 3500 
L 594 3500 
L 594 4494 
L 1172 4494 
z
" transform="scale(0.015625)"/>
       <path id="DejaVuSans-6f" d="M 1959 3097 
Q 1497 3097 1228 2736 
Q 959 2375 959 1747 
Q 959 1119 1226 758 
Q 1494 397 1959 397 
Q 2419 397 2687 759 
Q 2956 1122 2956 1747 
Q 2956 2369 2687 2733 
Q 2419 3097 1959 3097 
z
M 1959 3584 
Q 2709 3584 3137 3096 
Q 3566 2609 3566 1747 
Q 3566 888 3137 398 
Q 2709 -91 1959 -91 
Q 1206 -91 779 398 
Q 353 888 353 1747 
Q 353 2609 779 3096 
Q 1206 3584 1959 3584 
z
" transform="scale(0.015625)"/>
       <path id="DejaVuSans-72" d="M 2631 2963 
Q 2534 3019 2420 3045 
Q 2306 3072 2169 3072 
Q 1681 3072 1420 2755 
Q 1159 2438 1159 1844 
L 1159 0 
L 581 0 
L 581 3500 
L 1159 3500 
L 1159 2956 
Q 1341 3275 1631 3429 
Q 1922 3584 2338 3584 
Q 2397 3584 2469 3576 
Q 2541 3569 2628 3553 
L 2631 2963 
z
" transform="scale(0.015625)"/>
       <path id="DejaVuSans-79" d="M 2059 -325 
Q 1816 -950 1584 -1140 
Q 1353 -1331 966 -1331 
L 506 -1331 
L 506 -850 
L 844 -850 
Q 1081 -850 1212 -737 
Q 1344 -625 1503 -206 
L 1606 56 
L 191 3500 
L 800 3500 
L 1894 763 
L 2988 3500 
L 3597 3500 
L 2059 -325 
z
" transform="scale(0.015625)"/>
       <path id="DejaVuSans-66" d="M 2375 4863 
L 2375 4384 
L 1825 4384 
Q 1516 4384 1395 4259 
Q 1275 4134 1275 3809 
L 1275 3500 
L 2222 3500 
L 2222 3053 
L 1275 3053 
L 1275 0 
L 697 0 
L 697 3053 
L 147 3053 
L 147 3500 
L 697 3500 
L 697 3744 
Q 697 4328 969 4595 
Q 1241 4863 1831 4863 
L 2375 4863 
z
" transform="scale(0.015625)"/>
       <path id="DejaVuSans-70" d="M 1159 525 
L 1159 -1331 
L 581 -1331 
L 581 3500 
L 1159 3500 
L 1159 2969 
Q 1341 3281 1617 3432 
Q 1894 3584 2278 3584 
Q 2916 3584 3314 3078 
Q 3713 2572 3713 1747 
Q 3713 922 3314 415 
Q 2916 -91 2278 -91 
Q 1894 -91 1617 61 
Q 1341 213 1159 525 
z
M 3116 1747 
Q 3116 2381 2855 2742 
Q 2594 3103 2138 3103 
Q 1681 3103 1420 2742 
Q 1159 2381 1159 1747 
Q 1159 1113 1420 752 
Q 1681 391 2138 391 
Q 2594 391 2855 752 
Q 3116 1113 3116 1747 
z
" transform="scale(0.015625)"/>
       <path id="DejaVuSans-64" d="M 2906 2969 
L 2906 4863 
L 3481 4863 
L 3481 0 
L 2906 0 
L 2906 525 
Q 2725 213 2448 61 
Q 2172 -91 1784 -91 
Q 1150 -91 751 415 
Q 353 922 353 1747 
Q 353 2572 751 3078 
Q 1150 3584 1784 3584 
Q 2172 3584 2448 3432 
Q 2725 3281 2906 2969 
z
M 947 1747 
Q 947 1113 1208 752 
Q 1469 391 1925 391 
Q 2381 391 2643 752 
Q 2906 1113 2906 1747 
Q 2906 2381 2643 2742 
Q 2381 3103 1925 3103 
Q 1469 3103 1208 2742 
Q 947 2381 947 1747 
z
" transform="scale(0.015625)"/>
       <path id="DejaVuSans-63" d="M 3122 3366 
L 3122 2828 
Q 2878 2963 2633 3030 
Q 2388 3097 2138 3097 
Q 1578 3097 1268 2742 
Q 959 2388 959 1747 
Q 959 1106 1268 751 
Q 1578 397 2138 397 
Q 2388 397 2633 464 
Q 2878 531 3122 666 
L 3122 134 
Q 2881 22 2623 -34 
Q 2366 -91 2075 -91 
Q 1284 -91 818 406 
Q 353 903 353 1747 
Q 353 2603 823 3093 
Q 1294 3584 2113 3584 
Q 2378 3584 2631 3529 
Q 2884 3475 3122 3366 
z
" transform="scale(0.015625)"/>
       <path id="DejaVuSans-65" d="M 3597 1894 
L 3597 1613 
L 953 1613 
Q 991 1019 1311 708 
Q 1631 397 2203 397 
Q 2534 397 2845 478 
Q 3156 559 3463 722 
L 3463 178 
Q 3153 47 2828 -22 
Q 2503 -91 2169 -91 
Q 1331 -91 842 396 
Q 353 884 353 1716 
Q 353 2575 817 3079 
Q 1281 3584 2069 3584 
Q 2775 3584 3186 3129 
Q 3597 2675 3597 1894 
z
M 3022 2063 
Q 3016 2534 2758 2815 
Q 2500 3097 2075 3097 
Q 1594 3097 1305 2825 
Q 1016 2553 972 2059 
L 3022 2063 
z
" transform="scale(0.015625)"/>
      </defs>
      <use xlink:href="#DejaVuSans-4d"/>
      <use xlink:href="#DejaVuSans-69" x="86.279297"/>
      <use xlink:href="#DejaVuSans-6e" x="114.0625"/>
      <use xlink:href="#DejaVuSans-69" x="177.441406"/>
      <use xlink:href="#DejaVuSans-6d" x="205.224609"/>
      <use xlink:href="#DejaVuSans-75" x="302.636719"/>
      <use xlink:href="#DejaVuSans-6d" x="366.015625"/>
      <use xlink:href="#DejaVuSans-20" x="463.427734"/>
      <use xlink:href="#DejaVuSans-68" x="495.214844"/>
      <use xlink:href="#DejaVuSans-69" x="558.59375"/>
      <use xlink:href="#DejaVuSans-73" x="586.376953"/>
      <use xlink:href="#DejaVuSans-74" x="638.476562"/>
      <use xlink:href="#DejaVuSans-6f" x="677.685547"/>
      <use xlink:href="#DejaVuSans-72" x="738.867188"/>
      <use xlink:href="#DejaVuSans-79" x="779.980469"/>
      <use xlink:href="#DejaVuSans-20" x="839.160156"/>
      <use xlink:href="#DejaVuSans-6f" x="870.947266"/>
      <use xlink:href="#DejaVuSans-66" x="932.128906"/>
      <use xlink:href="#DejaVuSans-20" x="967.333984"/>
      <use xlink:href="#DejaVuSans-70" x="999.121094"/>
      <use xlink:href="#DejaVuSans-72" x="1062.597656"/>
      <use xlink:href="#DejaVuSans-6f" x="1101.460938"/>
      <use xlink:href="#DejaVuSans-64" x="1162.642578"/>
      <use xlink:href="#DejaVuSans-75" x="1226.119141"/>
      <use xlink:href="#DejaVuSans-63" x="1289.498047"/>
      <use xlink:href="#DejaVuSans-74" x="1344.478516"/>
      <use xlink:href="#DejaVuSans-73" x="1383.6875"/>
      <use xlink:href="#DejaVuSans-20" x="1435.787109"/>
      <use xlink:href="#DejaVuSans-69" x="1467.574219"/>
      <use xlink:href="#DejaVuSans-6e" x="1495.357422"/>
      <use xlink:href="#DejaVuSans-20" x="1558.736328"/>
      <use xlink:href="#DejaVuSans-73" x="1590.523438"/>
      <use xlink:href="#DejaVuSans-65" x="1642.623047"/>
      <use xlink:href="#DejaVuSans-74" x="1704.146484"/>
     </g>
    </g>
   </g>
   <g id="matplotlib.axis_2">
    <g id="ytick_1">
     <g id="line2d_13">
      <path d="M 52.275 331.543976 
L 634.79952 331.543976 
" clip-path="url(#p6c182d6dca)" style="fill: none; stroke: #e6e6e6; stroke-width: 0.8; stroke-linecap: square"/>
     </g>
     <g id="line2d_14">
      <defs>
       <path id="mf505a552d8" d="M 0 0 
L -3.5 0 
" style="stroke: #000000; stroke-width: 0.8"/>
      </defs>
      <g>
       <use xlink:href="#mf505a552d8" x="52.275" y="331.543976" style="stroke: #000000; stroke-width: 0.8"/>
      </g>
     </g>
     <g id="text_8">
      <!-- 0.0 -->
      <g transform="translate(27.781563 335.723117) scale(0.11 -0.11)">
       <defs>
        <path id="DejaVuSans-2e" d="M 684 794 
L 1344 794 
L 1344 0 
L 684 0 
L 684 794 
z
" transform="scale(0.015625)"/>
       </defs>
       <use xlink:href="#DejaVuSans-30"/>
       <use xlink:href="#DejaVuSans-2e" x="63.623047"/>
       <use xlink:href="#DejaVuSans-30" x="95.410156"/>
      </g>
     </g>
    </g>
    <g id="ytick_2">
     <g id="line2d_15">
      <path d="M 52.275 267.511009 
L 634.79952 267.511009 
" clip-path="url(#p6c182d6dca)" style="fill: none; stroke: #e6e6e6; stroke-width: 0.8; stroke-linecap: square"/>
     </g>
     <g id="line2d_16">
      <g>
       <use xlink:href="#mf505a552d8" x="52.275" y="267.511009" style="stroke: #000000; stroke-width: 0.8"/>
      </g>
     </g>
     <g id="text_9">
      <!-- 0.2 -->
      <g transform="translate(27.781563 271.69015) scale(0.11 -0.11)">
       <use xlink:href="#DejaVuSans-30"/>
       <use xlink:href="#DejaVuSans-2e" x="63.623047"/>
       <use xlink:href="#DejaVuSans-32" x="95.410156"/>
      </g>
     </g>
    </g>
    <g id="ytick_3">
     <g id="line2d_17">
      <path d="M 52.275 203.478042 
L 634.79952 203.478042 
" clip-path="url(#p6c182d6dca)" style="fill: none; stroke: #e6e6e6; stroke-width: 0.8; stroke-linecap: square"/>
     </g>
     <g id="line2d_18">
      <g>
       <use xlink:href="#mf505a552d8" x="52.275" y="203.478042" style="stroke: #000000; stroke-width: 0.8"/>
      </g>
     </g>
     <g id="text_10">
      <!-- 0.4 -->
      <g transform="translate(27.781563 207.657182) scale(0.11 -0.11)">
       <defs>
        <path id="DejaVuSans-34" d="M 2419 4116 
L 825 1625 
L 2419 1625 
L 2419 4116 
z
M 2253 4666 
L 3047 4666 
L 3047 1625 
L 3713 1625 
L 3713 1100 
L 3047 1100 
L 3047 0 
L 2419 0 
L 2419 1100 
L 313 1100 
L 313 1709 
L 2253 4666 
z
" transform="scale(0.015625)"/>
       </defs>
       <use xlink:href="#DejaVuSans-30"/>
       <use xlink:href="#DejaVuSans-2e" x="63.623047"/>
       <use xlink:href="#DejaVuSans-34" x="95.410156"/>
      </g>
     </g>
    </g>
    <g id="ytick_4">
     <g id="line2d_19">
      <path d="M 52.275 139.445075 
L 634.79952 139.445075 
" clip-path="url(#p6c182d6dca)" style="fill: none; stroke: #e6e6e6; stroke-width: 0.8; stroke-linecap: square"/>
     </g>
     <g id="line2d_20">
      <g>
       <use xlink:href="#mf505a552d8" x="52.275" y="139.445075" style="stroke: #000000; stroke-width: 0.8"/>
      </g>
     </g>
     <g id="text_11">
      <!-- 0.6 -->
      <g transform="translate(27.781563 143.624215) scale(0.11 -0.11)">
       <defs>
        <path id="DejaVuSans-36" d="M 2113 2584 
Q 1688 2584 1439 2293 
Q 1191 2003 1191 1497 
Q 1191 994 1439 701 
Q 1688 409 2113 409 
Q 2538 409 2786 701 
Q 3034 994 3034 1497 
Q 3034 2003 2786 2293 
Q 2538 2584 2113 2584 
z
M 3366 4563 
L 3366 3988 
Q 3128 4100 2886 4159 
Q 2644 4219 2406 4219 
Q 1781 4219 1451 3797 
Q 1122 3375 1075 2522 
Q 1259 2794 1537 2939 
Q 1816 3084 2150 3084 
Q 2853 3084 3261 2657 
Q 3669 2231 3669 1497 
Q 3669 778 3244 343 
Q 2819 -91 2113 -91 
Q 1303 -91 875 529 
Q 447 1150 447 2328 
Q 447 3434 972 4092 
Q 1497 4750 2381 4750 
Q 2619 4750 2861 4703 
Q 3103 4656 3366 4563 
z
" transform="scale(0.015625)"/>
       </defs>
       <use xlink:href="#DejaVuSans-30"/>
       <use xlink:href="#DejaVuSans-2e" x="63.623047"/>
       <use xlink:href="#DejaVuSans-36" x="95.410156"/>
      </g>
     </g>
    </g>
    <g id="ytick_5">
     <g id="line2d_21">
      <path d="M 52.275 75.412108 
L 634.79952 75.412108 
" clip-path="url(#p6c182d6dca)" style="fill: none; stroke: #e6e6e6; stroke-width: 0.8; stroke-linecap: square"/>
     </g>
     <g id="line2d_22">
      <g>
       <use xlink:href="#mf505a552d8" x="52.275" y="75.412108" style="stroke: #000000; stroke-width: 0.8"/>
      </g>
     </g>
     <g id="text_12">
      <!-- 0.8 -->
      <g transform="translate(27.781563 79.591248) scale(0.11 -0.11)">
       <defs>
        <path id="DejaVuSans-38" d="M 2034 2216 
Q 1584 2216 1326 1975 
Q 1069 1734 1069 1313 
Q 1069 891 1326 650 
Q 1584 409 2034 409 
Q 2484 409 2743 651 
Q 3003 894 3003 1313 
Q 3003 1734 2745 1975 
Q 2488 2216 2034 2216 
z
M 1403 2484 
Q 997 2584 770 2862 
Q 544 3141 544 3541 
Q 544 4100 942 4425 
Q 1341 4750 2034 4750 
Q 2731 4750 3128 4425 
Q 3525 4100 3525 3541 
Q 3525 3141 3298 2862 
Q 3072 2584 2669 2484 
Q 3125 2378 3379 2068 
Q 3634 1759 3634 1313 
Q 3634 634 3220 271 
Q 2806 -91 2034 -91 
Q 1263 -91 848 271 
Q 434 634 434 1313 
Q 434 1759 690 2068 
Q 947 2378 1403 2484 
z
M 1172 3481 
Q 1172 3119 1398 2916 
Q 1625 2713 2034 2713 
Q 2441 2713 2670 2916 
Q 2900 3119 2900 3481 
Q 2900 3844 2670 4047 
Q 2441 4250 2034 4250 
Q 1625 4250 1398 4047 
Q 1172 3844 1172 3481 
z
" transform="scale(0.015625)"/>
       </defs>
       <use xlink:href="#DejaVuSans-30"/>
       <use xlink:href="#DejaVuSans-2e" x="63.623047"/>
       <use xlink:href="#DejaVuSans-38" x="95.410156"/>
      </g>
     </g>
    </g>
    <g id="ytick_6">
     <g id="line2d_23">
      <path d="M 52.275 11.379141 
L 634.79952 11.379141 
" clip-path="url(#p6c182d6dca)" style="fill: none; stroke: #e6e6e6; stroke-width: 0.8; stroke-linecap: square"/>
     </g>
     <g id="line2d_24">
      <g>
       <use xlink:href="#mf505a552d8" x="52.275" y="11.379141" style="stroke: #000000; stroke-width: 0.8"/>
      </g>
     </g>
     <g id="text_13">
      <!-- 1.0 -->
      <g transform="translate(27.781563 15.558281) scale(0.11 -0.11)">
       <use xlink:href="#DejaVuSans-31"/>
       <use xlink:href="#DejaVuSans-2e" x="63.623047"/>
       <use xlink:href="#DejaVuSans-30" x="95.410156"/>
      </g>
     </g>
    </g>
    <g id="text_14">
     <!-- Weighted combined score -->
     <g transform="translate(17.077969 255.886402) rotate(-90) scale(0.13 -0.13)">
      <defs>
       <path id="DejaVuSans-57" d="M 213 4666 
L 850 4666 
L 1831 722 
L 2809 4666 
L 3519 4666 
L 4500 722 
L 5478 4666 
L 6119 4666 
L 4947 0 
L 4153 0 
L 3169 4050 
L 2175 0 
L 1381 0 
L 213 4666 
z
" transform="scale(0.015625)"/>
       <path id="DejaVuSans-67" d="M 2906 1791 
Q 2906 2416 2648 2759 
Q 2391 3103 1925 3103 
Q 1463 3103 1205 2759 
Q 947 2416 947 1791 
Q 947 1169 1205 825 
Q 1463 481 1925 481 
Q 2391 481 2648 825 
Q 2906 1169 2906 1791 
z
M 3481 434 
Q 3481 -459 3084 -895 
Q 2688 -1331 1869 -1331 
Q 1566 -1331 1297 -1286 
Q 1028 -1241 775 -1147 
L 775 -588 
Q 1028 -725 1275 -790 
Q 1522 -856 1778 -856 
Q 2344 -856 2625 -561 
Q 2906 -266 2906 331 
L 2906 616 
Q 2728 306 2450 153 
Q 2172 0 1784 0 
Q 1141 0 747 490 
Q 353 981 353 1791 
Q 353 2603 747 3093 
Q 1141 3584 1784 3584 
Q 2172 3584 2450 3431 
Q 2728 3278 2906 2969 
L 2906 3500 
L 3481 3500 
L 3481 434 
z
" transform="scale(0.015625)"/>
       <path id="DejaVuSans-62" d="M 3116 1747 
Q 3116 2381 2855 2742 
Q 2594 3103 2138 3103 
Q 1681 3103 1420 2742 
Q 1159 2381 1159 1747 
Q 1159 1113 1420 752 
Q 1681 391 2138 391 
Q 2594 391 2855 752 
Q 3116 1113 3116 1747 
z
M 1159 2969 
Q 1341 3281 1617 3432 
Q 1894 3584 2278 3584 
Q 2916 3584 3314 3078 
Q 3713 2572 3713 1747 
Q 3713 922 3314 415 
Q 2916 -91 2278 -91 
Q 1894 -91 1617 61 
Q 1341 213 1159 525 
L 1159 0 
L 581 0 
L 581 4863 
L 1159 4863 
L 1159 2969 
z
" transform="scale(0.015625)"/>
      </defs>
      <use xlink:href="#DejaVuSans-57"/>
      <use xlink:href="#DejaVuSans-65" x="93.001953"/>
      <use xlink:href="#DejaVuSans-69" x="154.525391"/>
      <use xlink:href="#DejaVuSans-67" x="182.308594"/>
      <use xlink:href="#DejaVuSans-68" x="245.785156"/>
      <use xlink:href="#DejaVuSans-74" x="309.164062"/>
      <use xlink:href="#DejaVuSans-65" x="348.373047"/>
      <use xlink:href="#DejaVuSans-64" x="409.896484"/>
      <use xlink:href="#DejaVuSans-20" x="473.373047"/>
      <use xlink:href="#DejaVuSans-63" x="505.160156"/>
      <use xlink:href="#DejaVuSans-6f" x="560.140625"/>
      <use xlink:href="#DejaVuSans-6d" x="621.322266"/>
      <use xlink:href="#DejaVuSans-62" x="718.734375"/>
      <use xlink:href="#DejaVuSans-69" x="782.210938"/>
      <use xlink:href="#DejaVuSans-6e" x="809.994141"/>
      <use xlink:href="#DejaVuSans-65" x="873.373047"/>
      <use xlink:href="#DejaVuSans-64" x="934.896484"/>
      <use xlink:href="#DejaVuSans-20" x="998.373047"/>
      <use xlink:href="#DejaVuSans-73" x="1030.160156"/>
      <use xlink:href="#DejaVuSans-63" x="1082.259766"/>
      <use xlink:href="#DejaVuSans-6f" x="1137.240234"/>
      <use xlink:href="#DejaVuSans-72" x="1198.421875"/>
      <use xlink:href="#DejaVuSans-65" x="1237.285156"/>
     </g>
    </g>
   </g>
   <g id="line2d_25">
    <path d="M 78.753387 148.687611 
L 184.666936 139.528649 
L 290.580485 149.344618 
L 396.494035 151.631209 
L 502.407584 131.135706 
L 608.321133 129.003012 
" clip-path="url(#p6c182d6dca)" style="fill: none; stroke: #009e73; stroke-opacity: 0.95; stroke-width: 2.2; stroke-linecap: square"/>
    <defs>
     <path id="me9c473f6a7" d="M 0 2.75 
C 0.729309 2.75 1.428845 2.460243 1.944544 1.944544 
C 2.460243 1.428845 2.75 0.729309 2.75 0 
C 2.75 -0.729309 2.460243 -1.428845 1.944544 -1.944544 
C 1.428845 -2.460243 0.729309 -2.75 0 -2.75 
C -0.729309 -2.75 -1.428845 -2.460243 -1.944544 -1.944544 
C -2.460243 -1.428845 -2.75 -0.729309 -2.75 0 
C -2.75 0.729309 -2.460243 1.428845 -1.944544 1.944544 
C -1.428845 2.460243 -0.729309 2.75 0 2.75 
z
" style="stroke: #009e73; stroke-opacity: 0.95"/>
    </defs>
    <g clip-path="url(#p6c182d6dca)">
     <use xlink:href="#me9c473f6a7" x="78.753387" y="148.687611" style="fill: #009e73; fill-opacity: 0.95; stroke: #009e73; stroke-opacity: 0.95"/>
     <use xlink:href="#me9c473f6a7" x="184.666936" y="139.528649" style="fill: #009e73; fill-opacity: 0.95; stroke: #009e73; stroke-opacity: 0.95"/>
     <use xlink:href="#me9c473f6a7" x="290.580485" y="149.344618" style="fill: #009e73; fill-opacity: 0.95; stroke: #009e73; stroke-opacity: 0.95"/>
     <use xlink:href="#me9c473f6a7" x="396.494035" y="151.631209" style="fill: #009e73; fill-opacity: 0.95; stroke: #009e73; stroke-opacity: 0.95"/>
     <use xlink:href="#me9c473f6a7" x="502.407584" y="131.135706" style="fill: #009e73; fill-opacity: 0.95; stroke: #009e73; stroke-opacity: 0.95"/>
     <use xlink:href="#me9c473f6a7" x="608.321133" y="129.003012" style="fill: #009e73; fill-opacity: 0.95; stroke: #009e73; stroke-opacity: 0.95"/>
    </g>
   </g>
   <g id="line2d_26">
    <path d="M 78.753387 59.850943 
L 184.666936 56.145419 
L 290.580485 56.448024 
L 396.494035 51.330628 
L 502.407584 41.977612 
L 608.321133 40.021862 
" clip-path="url(#p6c182d6dca)" style="fill: none; stroke: #d55e00; stroke-opacity: 0.95; stroke-width: 2.2; stroke-linecap: square"/>
    <defs>
     <path id="md9eac65330" d="M 0 2.75 
C 0.729309 2.75 1.428845 2.460243 1.944544 1.944544 
C 2.460243 1.428845 2.75 0.729309 2.75 0 
C 2.75 -0.729309 2.460243 -1.428845 1.944544 -1.944544 
C 1.428845 -2.460243 0.729309 -2.75 0 -2.75 
C -0.729309 -2.75 -1.428845 -2.460243 -1.944544 -1.944544 
C -2.460243 -1.428845 -2.75 -0.729309 -2.75 0 
C -2.75 0.729309 -2.460243 1.428845 -1.944544 1.944544 
C -1.428845 2.460243 -0.729309 2.75 0 2.75 
z
" style="stroke: #d55e00; stroke-opacity: 0.95"/>
    </defs>
    <g clip-path="url(#p6c182d6dca)">
     <use xlink:href="#md9eac65330" x="78.753387" y="59.850943" style="fill: #d55e00; fill-opacity: 0.95; stroke: #d55e00; stroke-opacity: 0.95"/>
     <use xlink:href="#md9eac65330" x="184.666936" y="56.145419" style="fill: #d55e00; fill-opacity: 0.95; stroke: #d55e00; stroke-opacity: 0.95"/>
     <use xlink:href="#md9eac65330" x="290.580485" y="56.448024" style="fill: #d55e00; fill-opacity: 0.95; stroke: #d55e00; stroke-opacity: 0.95"/>
     <use xlink:href="#md9eac65330" x="396.494035" y="51.330628" style="fill: #d55e00; fill-opacity: 0.95; stroke: #d55e00; stroke-opacity: 0.95"/>
     <use xlink:href="#md9eac65330" x="502.407584" y="41.977612" style="fill: #d55e00; fill-opacity: 0.95; stroke: #d55e00; stroke-opacity: 0.95"/>
     <use xlink:href="#md9eac65330" x="608.321133" y="40.021862" style="fill: #d55e00; fill-opacity: 0.95; stroke: #d55e00; stroke-opacity: 0.95"/>
    </g>
   </g>
   <g id="line2d_27">
    <path d="M 78.753387 146.405752 
L 184.666936 134.675891 
L 290.580485 130.068028 
L 396.494035 132.974681 
L 502.407584 122.573176 
L 608.321133 119.309001 
" clip-path="url(#p6c182d6dca)" style="fill: none; stroke-dasharray: 8.14,3.52; stroke-dashoffset: 0; stroke: #009e73; stroke-opacity: 0.95; stroke-width: 2.2"/>
    <defs>
     <path id="m1162b4cb64" d="M -2.75 2.75 
L 2.75 2.75 
L 2.75 -2.75 
L -2.75 -2.75 
z
" style="stroke: #009e73; stroke-opacity: 0.95; stroke-linejoin: miter"/>
    </defs>
    <g clip-path="url(#p6c182d6dca)">
     <use xlink:href="#m1162b4cb64" x="78.753387" y="146.405752" style="fill: #009e73; fill-opacity: 0.95; stroke: #009e73; stroke-opacity: 0.95; stroke-linejoin: miter"/>
     <use xlink:href="#m1162b4cb64" x="184.666936" y="134.675891" style="fill: #009e73; fill-opacity: 0.95; stroke: #009e73; stroke-opacity: 0.95; stroke-linejoin: miter"/>
     <use xlink:href="#m1162b4cb64" x="290.580485" y="130.068028" style="fill: #009e73; fill-opacity: 0.95; stroke: #009e73; stroke-opacity: 0.95; stroke-linejoin: miter"/>
     <use xlink:href="#m1162b4cb64" x="396.494035" y="132.974681" style="fill: #009e73; fill-opacity: 0.95; stroke: #009e73; stroke-opacity: 0.95; stroke-linejoin: miter"/>
     <use xlink:href="#m1162b4cb64" x="502.407584" y="122.573176" style="fill: #009e73; fill-opacity: 0.95; stroke: #009e73; stroke-opacity: 0.95; stroke-linejoin: miter"/>
     <use xlink:href="#m1162b4cb64" x="608.321133" y="119.309001" style="fill: #009e73; fill-opacity: 0.95; stroke: #009e73; stroke-opacity: 0.95; stroke-linejoin: miter"/>
    </g>
   </g>
   <g id="line2d_28">
    <path d="M 78.753387 55.512329 
L 184.666936 51.01412 
L 290.580485 48.89073 
L 396.494035 46.225611 
L 502.407584 39.124007 
L 608.321133 38.603697 
" clip-path="url(#p6c182d6dca)" style="fill: none; stroke-dasharray: 8.14,3.52; stroke-dashoffset: 0; stroke: #d55e00; stroke-opacity: 0.95; stroke-width: 2.2"/>
    <defs>
     <path id="mee6ec54315" d="M -2.75 2.75 
L 2.75 2.75 
L 2.75 -2.75 
L -2.75 -2.75 
z
" style="stroke: #d55e00; stroke-opacity: 0.95; stroke-linejoin: miter"/>
    </defs>
    <g clip-path="url(#p6c182d6dca)">
     <use xlink:href="#mee6ec54315" x="78.753387" y="55.512329" style="fill: #d55e00; fill-opacity: 0.95; stroke: #d55e00; stroke-opacity: 0.95; stroke-linejoin: miter"/>
     <use xlink:href="#mee6ec54315" x="184.666936" y="51.01412" style="fill: #d55e00; fill-opacity: 0.95; stroke: #d55e00; stroke-opacity: 0.95; stroke-linejoin: miter"/>
     <use xlink:href="#mee6ec54315" x="290.580485" y="48.89073" style="fill: #d55e00; fill-opacity: 0.95; stroke: #d55e00; stroke-opacity: 0.95; stroke-linejoin: miter"/>
     <use xlink:href="#mee6ec54315" x="396.494035" y="46.225611" style="fill: #d55e00; fill-opacity: 0.95; stroke: #d55e00; stroke-opacity: 0.95; stroke-linejoin: miter"/>
     <use xlink:href="#mee6ec54315" x="502.407584" y="39.124007" style="fill: #d55e00; fill-opacity: 0.95; stroke: #d55e00; stroke-opacity: 0.95; stroke-linejoin: miter"/>
     <use xlink:href="#mee6ec54315" x="608.321133" y="38.603697" style="fill: #d55e00; fill-opacity: 0.95; stroke: #d55e00; stroke-opacity: 0.95; stroke-linejoin: miter"/>
    </g>
   </g>
   <g id="line2d_29">
    <path d="M 78.753387 127.591329 
L 184.666936 121.403369 
L 290.580485 118.088555 
L 396.494035 116.976857 
L 502.407584 113.588316 
L 608.321133 106.484773 
" clip-path="url(#p6c182d6dca)" style="fill: none; stroke-dasharray: 2.2,3.63; stroke-dashoffset: 0; stroke: #009e73; stroke-opacity: 0.95; stroke-width: 2.2"/>
    <defs>
     <path id="m968a90ab28" d="M 0 -2.75 
L -2.75 2.75 
L 2.75 2.75 
z
" style="stroke: #009e73; stroke-opacity: 0.95; stroke-linejoin: miter"/>
    </defs>
    <g clip-path="url(#p6c182d6dca)">
     <use xlink:href="#m968a90ab28" x="78.753387" y="127.591329" style="fill: #009e73; fill-opacity: 0.95; stroke: #009e73; stroke-opacity: 0.95; stroke-linejoin: miter"/>
     <use xlink:href="#m968a90ab28" x="184.666936" y="121.403369" style="fill: #009e73; fill-opacity: 0.95; stroke: #009e73; stroke-opacity: 0.95; stroke-linejoin: miter"/>
     <use xlink:href="#m968a90ab28" x="290.580485" y="118.088555" style="fill: #009e73; fill-opacity: 0.95; stroke: #009e73; stroke-opacity: 0.95; stroke-linejoin: miter"/>
     <use xlink:href="#m968a90ab28" x="396.494035" y="116.976857" style="fill: #009e73; fill-opacity: 0.95; stroke: #009e73; stroke-opacity: 0.95; stroke-linejoin: miter"/>
     <use xlink:href="#m968a90ab28" x="502.407584" y="113.588316" style="fill: #009e73; fill-opacity: 0.95; stroke: #009e73; stroke-opacity: 0.95; stroke-linejoin: miter"/>
     <use xlink:href="#m968a90ab28" x="608.321133" y="106.484773" style="fill: #009e73; fill-opacity: 0.95; stroke: #009e73; stroke-opacity: 0.95; stroke-linejoin: miter"/>
    </g>
   </g>
   <g id="line2d_30">
    <path d="M 78.753387 47.037528 
L 184.666936 43.054192 
L 290.580485 41.577166 
L 396.494035 40.413021 
L 502.407584 38.117183 
L 608.321133 36.192178 
" clip-path="url(#p6c182d6dca)" style="fill: none; stroke-dasharray: 2.2,3.63; stroke-dashoffset: 0; stroke: #d55e00; stroke-opacity: 0.95; stroke-width: 2.2"/>
    <defs>
     <path id="mdbb6da6017" d="M 0 -2.75 
L -2.75 2.75 
L 2.75 2.75 
z
" style="stroke: #d55e00; stroke-opacity: 0.95; stroke-linejoin: miter"/>
    </defs>
    <g clip-path="url(#p6c182d6dca)">
     <use xlink:href="#mdbb6da6017" x="78.753387" y="47.037528" style="fill: #d55e00; fill-opacity: 0.95; stroke: #d55e00; stroke-opacity: 0.95; stroke-linejoin: miter"/>
     <use xlink:href="#mdbb6da6017" x="184.666936" y="43.054192" style="fill: #d55e00; fill-opacity: 0.95; stroke: #d55e00; stroke-opacity: 0.95; stroke-linejoin: miter"/>
     <use xlink:href="#mdbb6da6017" x="290.580485" y="41.577166" style="fill: #d55e00; fill-opacity: 0.95; stroke: #d55e00; stroke-opacity: 0.95; stroke-linejoin: miter"/>
     <use xlink:href="#mdbb6da6017" x="396.494035" y="40.413021" style="fill: #d55e00; fill-opacity: 0.95; stroke: #d55e00; stroke-opacity: 0.95; stroke-linejoin: miter"/>
     <use xlink:href="#mdbb6da6017" x="502.407584" y="38.117183" style="fill: #d55e00; fill-opacity: 0.95; stroke: #d55e00; stroke-opacity: 0.95; stroke-linejoin: miter"/>
     <use xlink:href="#mdbb6da6017" x="608.321133" y="36.192178" style="fill: #d55e00; fill-opacity: 0.95; stroke: #d55e00; stroke-opacity: 0.95; stroke-linejoin: miter"/>
    </g>
   </g>
   <g id="patch_3">
    <path d="M 52.275 331.543976 
L 52.275 11.379141 
" style="fill: none; stroke: #000000; stroke-width: 0.8; stroke-linejoin: miter; stroke-linecap: square"/>
   </g>
   <g id="patch_4">
    <path d="M 634.79952 331.543976 
L 634.79952 11.379141 
" style="fill: none; stroke: #000000; stroke-width: 0.8; stroke-linejoin: miter; stroke-linecap: square"/>
   </g>
   <g id="patch_5">
    <path d="M 52.275 331.543976 
L 634.79952 331.543976 
" style="fill: none; stroke: #000000; stroke-width: 0.8; stroke-linejoin: miter; stroke-linecap: square"/>
   </g>
   <g id="patch_6">
    <path d="M 52.275 11.379141 
L 634.79952 11.379141 
" style="fill: none; stroke: #000000; stroke-width: 0.8; stroke-linejoin: miter; stroke-linecap: square"/>
   </g>
  </g>
  <g id="axes_2">
   <g id="legend_1">
    <g id="text_15">
     <!-- Metric -->
     <g transform="translate(174.530239 431.264247) scale(0.13 -0.13)">
      <use xlink:href="#DejaVuSans-4d"/>
      <use xlink:href="#DejaVuSans-65" x="86.279297"/>
      <use xlink:href="#DejaVuSans-74" x="147.802734"/>
      <use xlink:href="#DejaVuSans-72" x="187.011719"/>
      <use xlink:href="#DejaVuSans-69" x="228.125"/>
      <use xlink:href="#DejaVuSans-63" x="255.908203"/>
     </g>
    </g>
    <g id="line2d_31">
     <path d="M 159.83313 450.995809 
L 174.13313 450.995809 
L 188.43313 450.995809 
" style="fill: none; stroke: #d55e00; stroke-opacity: 0.95; stroke-width: 2; stroke-linecap: square"/>
    </g>
    <g id="text_16">
     <!-- $G_{\mathrm{wc}}$ -->
     <g transform="translate(198.83313 455.545809) scale(0.13 -0.13)">
      <defs>
       <path id="DejaVuSans-Oblique-47" d="M 3494 697 
L 3738 1919 
L 2700 1919 
L 2797 2438 
L 4453 2438 
L 4050 384 
Q 3634 156 3143 32 
Q 2653 -91 2156 -91 
Q 1278 -91 783 396 
Q 288 884 288 1753 
Q 288 2475 589 3126 
Q 891 3778 1422 4213 
Q 1756 4484 2153 4617 
Q 2550 4750 3034 4750 
Q 3472 4750 3873 4639 
Q 4275 4528 4641 4306 
L 4513 3634 
Q 4231 3928 3853 4083 
Q 3475 4238 3047 4238 
Q 2550 4238 2172 4048 
Q 1794 3859 1497 3463 
Q 1244 3125 1098 2667 
Q 953 2209 953 1734 
Q 953 1081 1287 751 
Q 1622 422 2284 422 
Q 2616 422 2925 492 
Q 3234 563 3494 697 
z
" transform="scale(0.015625)"/>
       <path id="DejaVuSans-77" d="M 269 3500 
L 844 3500 
L 1563 769 
L 2278 3500 
L 2956 3500 
L 3675 769 
L 4391 3500 
L 4966 3500 
L 4050 0 
L 3372 0 
L 2619 2869 
L 1863 0 
L 1184 0 
L 269 3500 
z
" transform="scale(0.015625)"/>
      </defs>
      <use xlink:href="#DejaVuSans-Oblique-47" transform="translate(0 0.78125)"/>
      <use xlink:href="#DejaVuSans-77" transform="translate(77.490234 -15.625) scale(0.7)"/>
      <use xlink:href="#DejaVuSans-63" transform="translate(134.741211 -15.625) scale(0.7)"/>
     </g>
    </g>
    <g id="line2d_32">
     <path d="M 159.83313 475.277372 
L 174.13313 475.277372 
L 188.43313 475.277372 
" style="fill: none; stroke: #009e73; stroke-opacity: 0.95; stroke-width: 2; stroke-linecap: square"/>
    </g>
    <g id="text_17">
     <!-- $F_{1,\mathrm{wc}}$ -->
     <g transform="translate(198.83313 479.827372) scale(0.13 -0.13)">
      <defs>
       <path id="DejaVuSans-Oblique-46" d="M 1081 4666 
L 3756 4666 
L 3653 4134 
L 1606 4134 
L 1338 2759 
L 3188 2759 
L 3084 2228 
L 1234 2228 
L 800 0 
L 172 0 
L 1081 4666 
z
" transform="scale(0.015625)"/>
       <path id="DejaVuSans-2c" d="M 750 794 
L 1409 794 
L 1409 256 
L 897 -744 
L 494 -744 
L 750 256 
L 750 794 
z
" transform="scale(0.015625)"/>
      </defs>
      <use xlink:href="#DejaVuSans-Oblique-46" transform="translate(0 0.09375)"/>
      <use xlink:href="#DejaVuSans-31" transform="translate(57.519531 -16.3125) scale(0.7)"/>
      <use xlink:href="#DejaVuSans-2c" transform="translate(102.055664 -16.3125) scale(0.7)"/>
      <use xlink:href="#DejaVuSans-77" transform="translate(137.944336 -16.3125) scale(0.7)"/>
      <use xlink:href="#DejaVuSans-63" transform="translate(195.195312 -16.3125) scale(0.7)"/>
     </g>
    </g>
   </g>
  </g>
  <g id="axes_3">
   <g id="legend_2">
    <g id="text_18">
     <!-- Granularity -->
     <g transform="translate(455.743421 431.264247) scale(0.13 -0.13)">
      <defs>
       <path id="DejaVuSans-47" d="M 3809 666 
L 3809 1919 
L 2778 1919 
L 2778 2438 
L 4434 2438 
L 4434 434 
Q 4069 175 3628 42 
Q 3188 -91 2688 -91 
Q 1594 -91 976 548 
Q 359 1188 359 2328 
Q 359 3472 976 4111 
Q 1594 4750 2688 4750 
Q 3144 4750 3555 4637 
Q 3966 4525 4313 4306 
L 4313 3634 
Q 3963 3931 3569 4081 
Q 3175 4231 2741 4231 
Q 1884 4231 1454 3753 
Q 1025 3275 1025 2328 
Q 1025 1384 1454 906 
Q 1884 428 2741 428 
Q 3075 428 3337 486 
Q 3600 544 3809 666 
z
" transform="scale(0.015625)"/>
       <path id="DejaVuSans-61" d="M 2194 1759 
Q 1497 1759 1228 1600 
Q 959 1441 959 1056 
Q 959 750 1161 570 
Q 1363 391 1709 391 
Q 2188 391 2477 730 
Q 2766 1069 2766 1631 
L 2766 1759 
L 2194 1759 
z
M 3341 1997 
L 3341 0 
L 2766 0 
L 2766 531 
Q 2569 213 2275 61 
Q 1981 -91 1556 -91 
Q 1019 -91 701 211 
Q 384 513 384 1019 
Q 384 1609 779 1909 
Q 1175 2209 1959 2209 
L 2766 2209 
L 2766 2266 
Q 2766 2663 2505 2880 
Q 2244 3097 1772 3097 
Q 1472 3097 1187 3025 
Q 903 2953 641 2809 
L 641 3341 
Q 956 3463 1253 3523 
Q 1550 3584 1831 3584 
Q 2591 3584 2966 3190 
Q 3341 2797 3341 1997 
z
" transform="scale(0.015625)"/>
       <path id="DejaVuSans-6c" d="M 603 4863 
L 1178 4863 
L 1178 0 
L 603 0 
L 603 4863 
z
" transform="scale(0.015625)"/>
      </defs>
      <use xlink:href="#DejaVuSans-47"/>
      <use xlink:href="#DejaVuSans-72" x="77.490234"/>
      <use xlink:href="#DejaVuSans-61" x="118.603516"/>
      <use xlink:href="#DejaVuSans-6e" x="179.882812"/>
      <use xlink:href="#DejaVuSans-75" x="243.261719"/>
      <use xlink:href="#DejaVuSans-6c" x="306.640625"/>
      <use xlink:href="#DejaVuSans-61" x="334.423828"/>
      <use xlink:href="#DejaVuSans-72" x="395.703125"/>
      <use xlink:href="#DejaVuSans-69" x="436.816406"/>
      <use xlink:href="#DejaVuSans-74" x="464.599609"/>
      <use xlink:href="#DejaVuSans-79" x="503.808594"/>
     </g>
    </g>
    <g id="line2d_33">
     <path d="M 426.903734 450.995809 
L 441.203734 450.995809 
L 455.503734 450.995809 
" style="fill: none; stroke: #4d4d4d; stroke-width: 2.2; stroke-linecap: square"/>
     <defs>
      <path id="m7b5c815d1a" d="M 0 3 
C 0.795609 3 1.55874 2.683901 2.12132 2.12132 
C 2.683901 1.55874 3 0.795609 3 0 
C 3 -0.795609 2.683901 -1.55874 2.12132 -2.12132 
C 1.55874 -2.683901 0.795609 -3 0 -3 
C -0.795609 -3 -1.55874 -2.683901 -2.12132 -2.12132 
C -2.683901 -1.55874 -3 -0.795609 -3 0 
C -3 0.795609 -2.683901 1.55874 -2.12132 2.12132 
C -1.55874 2.683901 -0.795609 3 0 3 
z
" style="stroke: #4d4d4d"/>
     </defs>
     <g>
      <use xlink:href="#m7b5c815d1a" x="441.203734" y="450.995809" style="fill: #4d4d4d; stroke: #4d4d4d"/>
     </g>
    </g>
    <g id="text_19">
     <!-- Global -->
     <g transform="translate(465.903734 455.545809) scale(0.13 -0.13)">
      <use xlink:href="#DejaVuSans-47"/>
      <use xlink:href="#DejaVuSans-6c" x="77.490234"/>
      <use xlink:href="#DejaVuSans-6f" x="105.273438"/>
      <use xlink:href="#DejaVuSans-62" x="166.455078"/>
      <use xlink:href="#DejaVuSans-61" x="229.931641"/>
      <use xlink:href="#DejaVuSans-6c" x="291.210938"/>
     </g>
    </g>
    <g id="line2d_34">
     <path d="M 426.903734 475.277372 
L 441.203734 475.277372 
L 455.503734 475.277372 
" style="fill: none; stroke-dasharray: 8.14,3.52; stroke-dashoffset: 0; stroke: #4d4d4d; stroke-width: 2.2"/>
     <defs>
      <path id="m30807b7f2a" d="M -3 3 
L 3 3 
L 3 -3 
L -3 -3 
z
" style="stroke: #4d4d4d; stroke-linejoin: miter"/>
     </defs>
     <g>
      <use xlink:href="#m30807b7f2a" x="441.203734" y="475.277372" style="fill: #4d4d4d; stroke: #4d4d4d; stroke-linejoin: miter"/>
     </g>
    </g>
    <g id="text_20">
     <!-- By country -->
     <g transform="translate(465.903734 479.827372) scale(0.13 -0.13)">
      <defs>
       <path id="DejaVuSans-42" d="M 1259 2228 
L 1259 519 
L 2272 519 
Q 2781 519 3026 730 
Q 3272 941 3272 1375 
Q 3272 1813 3026 2020 
Q 2781 2228 2272 2228 
L 1259 2228 
z
M 1259 4147 
L 1259 2741 
L 2194 2741 
Q 2656 2741 2882 2914 
Q 3109 3088 3109 3444 
Q 3109 3797 2882 3972 
Q 2656 4147 2194 4147 
L 1259 4147 
z
M 628 4666 
L 2241 4666 
Q 2963 4666 3353 4366 
Q 3744 4066 3744 3513 
Q 3744 3084 3544 2831 
Q 3344 2578 2956 2516 
Q 3422 2416 3680 2098 
Q 3938 1781 3938 1306 
Q 3938 681 3513 340 
Q 3088 0 2303 0 
L 628 0 
L 628 4666 
z
" transform="scale(0.015625)"/>
      </defs>
      <use xlink:href="#DejaVuSans-42"/>
      <use xlink:href="#DejaVuSans-79" x="68.603516"/>
      <use xlink:href="#DejaVuSans-20" x="127.783203"/>
      <use xlink:href="#DejaVuSans-63" x="159.570312"/>
      <use xlink:href="#DejaVuSans-6f" x="214.550781"/>
      <use xlink:href="#DejaVuSans-75" x="275.732422"/>
      <use xlink:href="#DejaVuSans-6e" x="339.111328"/>
      <use xlink:href="#DejaVuSans-74" x="402.490234"/>
      <use xlink:href="#DejaVuSans-72" x="441.699219"/>
      <use xlink:href="#DejaVuSans-79" x="482.8125"/>
     </g>
    </g>
    <g id="line2d_35">
     <path d="M 426.903734 499.558934 
L 441.203734 499.558934 
L 455.503734 499.558934 
" style="fill: none; stroke-dasharray: 2.2,3.63; stroke-dashoffset: 0; stroke: #4d4d4d; stroke-width: 2.2"/>
     <defs>
      <path id="mf14ada6b52" d="M 0 -3 
L -3 3 
L 3 3 
z
" style="stroke: #4d4d4d; stroke-linejoin: miter"/>
     </defs>
     <g>
      <use xlink:href="#mf14ada6b52" x="441.203734" y="499.558934" style="fill: #4d4d4d; stroke: #4d4d4d; stroke-linejoin: miter"/>
     </g>
    </g>
    <g id="text_21">
     <!-- By competitor -->
     <g transform="translate(465.903734 504.108934) scale(0.13 -0.13)">
      <use xlink:href="#DejaVuSans-42"/>
      <use xlink:href="#DejaVuSans-79" x="68.603516"/>
      <use xlink:href="#DejaVuSans-20" x="127.783203"/>
      <use xlink:href="#DejaVuSans-63" x="159.570312"/>
      <use xlink:href="#DejaVuSans-6f" x="214.550781"/>
      <use xlink:href="#DejaVuSans-6d" x="275.732422"/>
      <use xlink:href="#DejaVuSans-70" x="373.144531"/>
      <use xlink:href="#DejaVuSans-65" x="436.621094"/>
      <use xlink:href="#DejaVuSans-74" x="498.144531"/>
      <use xlink:href="#DejaVuSans-69" x="537.353516"/>
      <use xlink:href="#DejaVuSans-74" x="565.136719"/>
      <use xlink:href="#DejaVuSans-6f" x="604.345703"/>
      <use xlink:href="#DejaVuSans-72" x="665.527344"/>
     </g>
    </g>
   </g>
  </g>
 </g>
 <defs>
  <clipPath id="p6c182d6dca">
   <rect x="52.275" y="11.379141" width="582.52452" height="320.164835"/>
  </clipPath>
 </defs>
</svg>
