<?xml version="1.0" encoding="utf-8" standalone="no"?>
<!DOCTYPE svg PUBLIC "-//W3C//DTD SVG 1.1//EN"
  "http://www.w3.org/Graphics/SVG/1.1/DTD/svg11.dtd">
<svg xmlns:xlink="http://www.w3.org/1999/xlink" width="872.39952pt" height="548.39952pt" viewBox="0 0 872.39952 548.39952" xmlns="http://www.w3.org/2000/svg" version="1.1">
 <metadata>
  <rdf:RDF xmlns:dc="http://purl.org/dc/elements/1.1/" xmlns:cc="http://creativecommons.org/ns#" xmlns:rdf="http://www.w3.org/1999/02/22-rdf-syntax-ns#">
   <cc:Work>
    <dc:type rdf:resource="http://purl.org/dc/dcmitype/StillImage"/>
    <dc:date>2026-03-24T23:57:41.040156</dc:date>
    <dc:format>image/svg+xml</dc:format>
    <dc:creator>
     <cc:Agent>
      <dc:title>Matplotlib v3.8.4, https://matplotlib.org/</dc:title>
     </cc:Agent>
    </dc:creator>
   </cc:Work>
  </rdf:RDF>
 </metadata>
 <defs>
  <style type="text/css">*{stroke-linejoin: round; stroke-linecap: butt}</style>
 </defs>
 <g id="figure_1">
  <g id="patch_1">
   <path d="M 0 548.39952 
L 872.39952 548.39952 
L 872.39952 0 
L 0 0 
z
" style="fill: #ffffff"/>
  </g>
  <g id="axes_1">
   <g id="patch_2">
    <path d="M 44.749063 509.875457 
L 865.19952 509.875457 
L 865.19952 54.778605 
L 44.749063 54.778605 
z
" style="fill: #ffffff"/>
   </g>
   <g id="line2d_1">
    <path d="M 60.526956 509.875457 
L 60.526956 54.778605 
" clip-path="url(#p7f4c8af6af)" style="fill: none; stroke-dasharray: 3.7,1.6; stroke-dashoffset: 0; stroke: #d9d9d9"/>
   </g>
   <g id="line2d_2">
    <path d="M 218.30589 509.875457 
L 218.30589 54.778605 
" clip-path="url(#p7f4c8af6af)" style="fill: none; stroke-dasharray: 3.7,1.6; stroke-dashoffset: 0; stroke: #d9d9d9"/>
   </g>
   <g id="line2d_3">
    <path d="M 376.084824 509.875457 
L 376.084824 54.778605 
" clip-path="url(#p7f4c8af6af)" style="fill: none; stroke-dasharray: 3.7,1.6; stroke-dashoffset: 0; stroke: #d9d9d9"/>
   </g>
   <g id="line2d_4">
    <path d="M 533.863758 509.875457 
L 533.863758 54.778605 
" clip-path="url(#p7f4c8af6af)" style="fill: none; stroke-dasharray: 3.7,1.6; stroke-dashoffset: 0; stroke: #d9d9d9"/>
   </g>
   <g id="line2d_5">
    <path d="M 691.642692 509.875457 
L 691.642692 54.778605 
" clip-path="url(#p7f4c8af6af)" style="fill: none; stroke-dasharray: 3.7,1.6; stroke-dashoffset: 0; stroke: #d9d9d9"/>
   </g>
   <g id="line2d_6">
    <path d="M 849.421627 509.875457 
L 849.421627 54.778605 
" clip-path="url(#p7f4c8af6af)" style="fill: none; stroke-dasharray: 3.7,1.6; stroke-dashoffset: 0; stroke: #d9d9d9"/>
   </g>
   <g id="matplotlib.axis_1">
    <g id="xtick_1">
     <g id="line2d_7">
      <path d="M 60.526956 509.875457 
L 60.526956 54.778605 
" clip-path="url(#p7f4c8af6af)" style="fill: none; stroke: #f2f2f2; stroke-opacity: 0.7; stroke-width: 0.6; stroke-linecap: square"/>
     </g>
     <g id="line2d_8">
      <defs>
       <path id="m4b95fcde90" d="M 0 0 
L 0 3.5 
" style="stroke: #000000; stroke-width: 0.8"/>
      </defs>
      <g>
       <use xlink:href="#m4b95fcde90" x="60.526956" y="509.875457" style="stroke: #000000; stroke-width: 0.8"/>
      </g>
     </g>
     <g id="text_1">
      <!-- 5 -->
      <g transform="translate(57.345706 524.473895) scale(0.1 -0.1)">
       <defs>
        <path id="DejaVuSans-35" d="M 691 4666 
L 3169 4666 
L 3169 4134 
L 1269 4134 
L 1269 2991 
Q 1406 3038 1543 3061 
Q 1681 3084 1819 3084 
Q 2600 3084 3056 2656 
Q 3513 2228 3513 1497 
Q 3513 744 3044 326 
Q 2575 -91 1722 -91 
Q 1428 -91 1123 -41 
Q 819 9 494 109 
L 494 744 
Q 775 591 1075 516 
Q 1375 441 1709 441 
Q 2250 441 2565 725 
Q 2881 1009 2881 1497 
Q 2881 1984 2565 2268 
Q 2250 2553 1709 2553 
Q 1456 2553 1204 2497 
Q 953 2441 691 2322 
L 691 4666 
z
" transform="scale(0.015625)"/>
       </defs>
       <use xlink:href="#DejaVuSans-35"/>
      </g>
     </g>
    </g>
    <g id="xtick_2">
     <g id="line2d_9">
      <path d="M 218.30589 509.875457 
L 218.30589 54.778605 
" clip-path="url(#p7f4c8af6af)" style="fill: none; stroke: #f2f2f2; stroke-opacity: 0.7; stroke-width: 0.6; stroke-linecap: square"/>
     </g>
     <g id="line2d_10">
      <g>
       <use xlink:href="#m4b95fcde90" x="218.30589" y="509.875457" style="stroke: #000000; stroke-width: 0.8"/>
      </g>
     </g>
     <g id="text_2">
      <!-- 10 -->
      <g transform="translate(211.94339 524.473895) scale(0.1 -0.1)">
       <defs>
        <path id="DejaVuSans-31" d="M 794 531 
L 1825 531 
L 1825 4091 
L 703 3866 
L 703 4441 
L 1819 4666 
L 2450 4666 
L 2450 531 
L 3481 531 
L 3481 0 
L 794 0 
L 794 531 
z
" transform="scale(0.015625)"/>
        <path id="DejaVuSans-30" d="M 2034 4250 
Q 1547 4250 1301 3770 
Q 1056 3291 1056 2328 
Q 1056 1369 1301 889 
Q 1547 409 2034 409 
Q 2525 409 2770 889 
Q 3016 1369 3016 2328 
Q 3016 3291 2770 3770 
Q 2525 4250 2034 4250 
z
M 2034 4750 
Q 2819 4750 3233 4129 
Q 3647 3509 3647 2328 
Q 3647 1150 3233 529 
Q 2819 -91 2034 -91 
Q 1250 -91 836 529 
Q 422 1150 422 2328 
Q 422 3509 836 4129 
Q 1250 4750 2034 4750 
z
" transform="scale(0.015625)"/>
       </defs>
       <use xlink:href="#DejaVuSans-31"/>
       <use xlink:href="#DejaVuSans-30" x="63.623047"/>
      </g>
     </g>
    </g>
    <g id="xtick_3">
     <g id="line2d_11">
      <path d="M 376.084824 509.875457 
L 376.084824 54.778605 
" clip-path="url(#p7f4c8af6af)" style="fill: none; stroke: #f2f2f2; stroke-opacity: 0.7; stroke-width: 0.6; stroke-linecap: square"/>
     </g>
     <g id="line2d_12">
      <g>
       <use xlink:href="#m4b95fcde90" x="376.084824" y="509.875457" style="stroke: #000000; stroke-width: 0.8"/>
      </g>
     </g>
     <g id="text_3">
      <!-- 15 -->
      <g transform="translate(369.722324 524.473895) scale(0.1 -0.1)">
       <use xlink:href="#DejaVuSans-31"/>
       <use xlink:href="#DejaVuSans-35" x="63.623047"/>
      </g>
     </g>
    </g>
    <g id="xtick_4">
     <g id="line2d_13">
      <path d="M 533.863758 509.875457 
L 533.863758 54.778605 
" clip-path="url(#p7f4c8af6af)" style="fill: none; stroke: #f2f2f2; stroke-opacity: 0.7; stroke-width: 0.6; stroke-linecap: square"/>
     </g>
     <g id="line2d_14">
      <g>
       <use xlink:href="#m4b95fcde90" x="533.863758" y="509.875457" style="stroke: #000000; stroke-width: 0.8"/>
      </g>
     </g>
     <g id="text_4">
      <!-- 20 -->
      <g transform="translate(527.501258 524.473895) scale(0.1 -0.1)">
       <defs>
        <path id="DejaVuSans-32" d="M 1228 531 
L 3431 531 
L 3431 0 
L 469 0 
L 469 531 
Q 828 903 1448 1529 
Q 2069 2156 2228 2338 
Q 2531 2678 2651 2914 
Q 2772 3150 2772 3378 
Q 2772 3750 2511 3984 
Q 2250 4219 1831 4219 
Q 1534 4219 1204 4116 
Q 875 4013 500 3803 
L 500 4441 
Q 881 4594 1212 4672 
Q 1544 4750 1819 4750 
Q 2544 4750 2975 4387 
Q 3406 4025 3406 3419 
Q 3406 3131 3298 2873 
Q 3191 2616 2906 2266 
Q 2828 2175 2409 1742 
Q 1991 1309 1228 531 
z
" transform="scale(0.015625)"/>
       </defs>
       <use xlink:href="#DejaVuSans-32"/>
       <use xlink:href="#DejaVuSans-30" x="63.623047"/>
      </g>
     </g>
    </g>
    <g id="xtick_5">
     <g id="line2d_15">
      <path d="M 691.642692 509.875457 
L 691.642692 54.778605 
" clip-path="url(#p7f4c8af6af)" style="fill: none; stroke: #f2f2f2; stroke-opacity: 0.7; stroke-width: 0.6; stroke-linecap: square"/>
     </g>
     <g id="line2d_16">
      <g>
       <use xlink:href="#m4b95fcde90" x="691.642692" y="509.875457" style="stroke: #000000; stroke-width: 0.8"/>
      </g>
     </g>
     <g id="text_5">
      <!-- 25 -->
      <g transform="translate(685.280192 524.473895) scale(0.1 -0.1)">
       <use xlink:href="#DejaVuSans-32"/>
       <use xlink:href="#DejaVuSans-35" x="63.623047"/>
      </g>
     </g>
    </g>
    <g id="xtick_6">
     <g id="line2d_17">
      <path d="M 849.421627 509.875457 
L 849.421627 54.778605 
" clip-path="url(#p7f4c8af6af)" style="fill: none; stroke: #f2f2f2; stroke-opacity: 0.7; stroke-width: 0.6; stroke-linecap: square"/>
     </g>
     <g id="line2d_18">
      <g>
       <use xlink:href="#m4b95fcde90" x="849.421627" y="509.875457" style="stroke: #000000; stroke-width: 0.8"/>
      </g>
     </g>
     <g id="text_6">
      <!-- 30 -->
      <g transform="translate(843.059127 524.473895) scale(0.1 -0.1)">
       <defs>
        <path id="DejaVuSans-33" d="M 2597 2516 
Q 3050 2419 3304 2112 
Q 3559 1806 3559 1356 
Q 3559 666 3084 287 
Q 2609 -91 1734 -91 
Q 1441 -91 1130 -33 
Q 819 25 488 141 
L 488 750 
Q 750 597 1062 519 
Q 1375 441 1716 441 
Q 2309 441 2620 675 
Q 2931 909 2931 1356 
Q 2931 1769 2642 2001 
Q 2353 2234 1838 2234 
L 1294 2234 
L 1294 2753 
L 1863 2753 
Q 2328 2753 2575 2939 
Q 2822 3125 2822 3475 
Q 2822 3834 2567 4026 
Q 2313 4219 1838 4219 
Q 1578 4219 1281 4162 
Q 984 4106 628 3988 
L 628 4550 
Q 988 4650 1302 4700 
Q 1616 4750 1894 4750 
Q 2613 4750 3031 4423 
Q 3450 4097 3450 3541 
Q 3450 3153 3228 2886 
Q 3006 2619 2597 2516 
z
" transform="scale(0.015625)"/>
       </defs>
       <use xlink:href="#DejaVuSans-33"/>
       <use xlink:href="#DejaVuSans-30" x="63.623047"/>
      </g>
     </g>
    </g>
    <g id="text_7">
     <!-- Minimum history of products in set -->
     <g transform="translate(359.092963 538.911864) scale(0.11 -0.11)">
      <defs>
       <path id="DejaVuSans-4d" d="M 628 4666 
L 1569 4666 
L 2759 1491 
L 3956 4666 
L 4897 4666 
L 4897 0 
L 4281 0 
L 4281 4097 
L 3078 897 
L 2444 897 
L 1241 4097 
L 1241 0 
L 628 0 
L 628 4666 
z
" transform="scale(0.015625)"/>
       <path id="DejaVuSans-69" d="M 603 3500 
L 1178 3500 
L 1178 0 
L 603 0 
L 603 3500 
z
M 603 4863 
L 1178 4863 
L 1178 4134 
L 603 4134 
L 603 4863 
z
" transform="scale(0.015625)"/>
       <path id="DejaVuSans-6e" d="M 3513 2113 
L 3513 0 
L 2938 0 
L 2938 2094 
Q 2938 2591 2744 2837 
Q 2550 3084 2163 3084 
Q 1697 3084 1428 2787 
Q 1159 2491 1159 1978 
L 1159 0 
L 581 0 
L 581 3500 
L 1159 3500 
L 1159 2956 
Q 1366 3272 1645 3428 
Q 1925 3584 2291 3584 
Q 2894 3584 3203 3211 
Q 3513 2838 3513 2113 
z
" transform="scale(0.015625)"/>
       <path id="DejaVuSans-6d" d="M 3328 2828 
Q 3544 3216 3844 3400 
Q 4144 3584 4550 3584 
Q 5097 3584 5394 3201 
Q 5691 2819 5691 2113 
L 5691 0 
L 5113 0 
L 5113 2094 
Q 5113 2597 4934 2840 
Q 4756 3084 4391 3084 
Q 3944 3084 3684 2787 
Q 3425 2491 3425 1978 
L 3425 0 
L 2847 0 
L 2847 2094 
Q 2847 2600 2669 2842 
Q 2491 3084 2119 3084 
Q 1678 3084 1418 2786 
Q 1159 2488 1159 1978 
L 1159 0 
L 581 0 
L 581 3500 
L 1159 3500 
L 1159 2956 
Q 1356 3278 1631 3431 
Q 1906 3584 2284 3584 
Q 2666 3584 2933 3390 
Q 3200 3197 3328 2828 
z
" transform="scale(0.015625)"/>
       <path id="DejaVuSans-75" d="M 544 1381 
L 544 3500 
L 1119 3500 
L 1119 1403 
Q 1119 906 1312 657 
Q 1506 409 1894 409 
Q 2359 409 2629 706 
Q 2900 1003 2900 1516 
L 2900 3500 
L 3475 3500 
L 3475 0 
L 2900 0 
L 2900 538 
Q 2691 219 2414 64 
Q 2138 -91 1772 -91 
Q 1169 -91 856 284 
Q 544 659 544 1381 
z
M 1991 3584 
L 1991 3584 
z
" transform="scale(0.015625)"/>
       <path id="DejaVuSans-20" transform="scale(0.015625)"/>
       <path id="DejaVuSans-68" d="M 3513 2113 
L 3513 0 
L 2938 0 
L 2938 2094 
Q 2938 2591 2744 2837 
Q 2550 3084 2163 3084 
Q 1697 3084 1428 2787 
Q 1159 2491 1159 1978 
L 1159 0 
L 581 0 
L 581 4863 
L 1159 4863 
L 1159 2956 
Q 1366 3272 1645 3428 
Q 1925 3584 2291 3584 
Q 2894 3584 3203 3211 
Q 3513 2838 3513 2113 
z
" transform="scale(0.015625)"/>
       <path id="DejaVuSans-73" d="M 2834 3397 
L 2834 2853 
Q 2591 2978 2328 3040 
Q 2066 3103 1784 3103 
Q 1356 3103 1142 2972 
Q 928 2841 928 2578 
Q 928 2378 1081 2264 
Q 1234 2150 1697 2047 
L 1894 2003 
Q 2506 1872 2764 1633 
Q 3022 1394 3022 966 
Q 3022 478 2636 193 
Q 2250 -91 1575 -91 
Q 1294 -91 989 -36 
Q 684 19 347 128 
L 347 722 
Q 666 556 975 473 
Q 1284 391 1588 391 
Q 1994 391 2212 530 
Q 2431 669 2431 922 
Q 2431 1156 2273 1281 
Q 2116 1406 1581 1522 
L 1381 1569 
Q 847 1681 609 1914 
Q 372 2147 372 2553 
Q 372 3047 722 3315 
Q 1072 3584 1716 3584 
Q 2034 3584 2315 3537 
Q 2597 3491 2834 3397 
z
" transform="scale(0.015625)"/>
       <path id="DejaVuSans-74" d="M 1172 4494 
L 1172 3500 
L 2356 3500 
L 2356 3053 
L 1172 3053 
L 1172 1153 
Q 1172 725 1289 603 
Q 1406 481 1766 481 
L 2356 481 
L 2356 0 
L 1766 0 
Q 1100 0 847 248 
Q 594 497 594 1153 
L 594 3053 
L 172 3053 
L 172 3500 
L 594 3500 
L 594 4494 
L 1172 4494 
z
" transform="scale(0.015625)"/>
       <path id="DejaVuSans-6f" d="M 1959 3097 
Q 1497 3097 1228 2736 
Q 959 2375 959 1747 
Q 959 1119 1226 758 
Q 1494 397 1959 397 
Q 2419 397 2687 759 
Q 2956 1122 2956 1747 
Q 2956 2369 2687 2733 
Q 2419 3097 1959 3097 
z
M 1959 3584 
Q 2709 3584 3137 3096 
Q 3566 2609 3566 1747 
Q 3566 888 3137 398 
Q 2709 -91 1959 -91 
Q 1206 -91 779 398 
Q 353 888 353 1747 
Q 353 2609 779 3096 
Q 1206 3584 1959 3584 
z
" transform="scale(0.015625)"/>
       <path id="DejaVuSans-72" d="M 2631 2963 
Q 2534 3019 2420 3045 
Q 2306 3072 2169 3072 
Q 1681 3072 1420 2755 
Q 1159 2438 1159 1844 
L 1159 0 
L 581 0 
L 581 3500 
L 1159 3500 
L 1159 2956 
Q 1341 3275 1631 3429 
Q 1922 3584 2338 3584 
Q 2397 3584 2469 3576 
Q 2541 3569 2628 3553 
L 2631 2963 
z
" transform="scale(0.015625)"/>
       <path id="DejaVuSans-79" d="M 2059 -325 
Q 1816 -950 1584 -1140 
Q 1353 -1331 966 -1331 
L 506 -1331 
L 506 -850 
L 844 -850 
Q 1081 -850 1212 -737 
Q 1344 -625 1503 -206 
L 1606 56 
L 191 3500 
L 800 3500 
L 1894 763 
L 2988 3500 
L 3597 3500 
L 2059 -325 
z
" transform="scale(0.015625)"/>
       <path id="DejaVuSans-66" d="M 2375 4863 
L 2375 4384 
L 1825 4384 
Q 1516 4384 1395 4259 
Q 1275 4134 1275 3809 
L 1275 3500 
L 2222 3500 
L 2222 3053 
L 1275 3053 
L 1275 0 
L 697 0 
L 697 3053 
L 147 3053 
L 147 3500 
L 697 3500 
L 697 3744 
Q 697 4328 969 4595 
Q 1241 4863 1831 4863 
L 2375 4863 
z
" transform="scale(0.015625)"/>
       <path id="DejaVuSans-70" d="M 1159 525 
L 1159 -1331 
L 581 -1331 
L 581 3500 
L 1159 3500 
L 1159 2969 
Q 1341 3281 1617 3432 
Q 1894 3584 2278 3584 
Q 2916 3584 3314 3078 
Q 3713 2572 3713 1747 
Q 3713 922 3314 415 
Q 2916 -91 2278 -91 
Q 1894 -91 1617 61 
Q 1341 213 1159 525 
z
M 3116 1747 
Q 3116 2381 2855 2742 
Q 2594 3103 2138 3103 
Q 1681 3103 1420 2742 
Q 1159 2381 1159 1747 
Q 1159 1113 1420 752 
Q 1681 391 2138 391 
Q 2594 391 2855 752 
Q 3116 1113 3116 1747 
z
" transform="scale(0.015625)"/>
       <path id="DejaVuSans-64" d="M 2906 2969 
L 2906 4863 
L 3481 4863 
L 3481 0 
L 2906 0 
L 2906 525 
Q 2725 213 2448 61 
Q 2172 -91 1784 -91 
Q 1150 -91 751 415 
Q 353 922 353 1747 
Q 353 2572 751 3078 
Q 1150 3584 1784 3584 
Q 2172 3584 2448 3432 
Q 2725 3281 2906 2969 
z
M 947 1747 
Q 947 1113 1208 752 
Q 1469 391 1925 391 
Q 2381 391 2643 752 
Q 2906 1113 2906 1747 
Q 2906 2381 2643 2742 
Q 2381 3103 1925 3103 
Q 1469 3103 1208 2742 
Q 947 2381 947 1747 
z
" transform="scale(0.015625)"/>
       <path id="DejaVuSans-63" d="M 3122 3366 
L 3122 2828 
Q 2878 2963 2633 3030 
Q 2388 3097 2138 3097 
Q 1578 3097 1268 2742 
Q 959 2388 959 1747 
Q 959 1106 1268 751 
Q 1578 397 2138 397 
Q 2388 397 2633 464 
Q 2878 531 3122 666 
L 3122 134 
Q 2881 22 2623 -34 
Q 2366 -91 2075 -91 
Q 1284 -91 818 406 
Q 353 903 353 1747 
Q 353 2603 823 3093 
Q 1294 3584 2113 3584 
Q 2378 3584 2631 3529 
Q 2884 3475 3122 3366 
z
" transform="scale(0.015625)"/>
       <path id="DejaVuSans-65" d="M 3597 1894 
L 3597 1613 
L 953 1613 
Q 991 1019 1311 708 
Q 1631 397 2203 397 
Q 2534 397 2845 478 
Q 3156 559 3463 722 
L 3463 178 
Q 3153 47 2828 -22 
Q 2503 -91 2169 -91 
Q 1331 -91 842 396 
Q 353 884 353 1716 
Q 353 2575 817 3079 
Q 1281 3584 2069 3584 
Q 2775 3584 3186 3129 
Q 3597 2675 3597 1894 
z
M 3022 2063 
Q 3016 2534 2758 2815 
Q 2500 3097 2075 3097 
Q 1594 3097 1305 2825 
Q 1016 2553 972 2059 
L 3022 2063 
z
" transform="scale(0.015625)"/>
      </defs>
      <use xlink:href="#DejaVuSans-4d"/>
      <use xlink:href="#DejaVuSans-69" x="86.279297"/>
      <use xlink:href="#DejaVuSans-6e" x="114.0625"/>
      <use xlink:href="#DejaVuSans-69" x="177.441406"/>
      <use xlink:href="#DejaVuSans-6d" x="205.224609"/>
      <use xlink:href="#DejaVuSans-75" x="302.636719"/>
      <use xlink:href="#DejaVuSans-6d" x="366.015625"/>
      <use xlink:href="#DejaVuSans-20" x="463.427734"/>
      <use xlink:href="#DejaVuSans-68" x="495.214844"/>
      <use xlink:href="#DejaVuSans-69" x="558.59375"/>
      <use xlink:href="#DejaVuSans-73" x="586.376953"/>
      <use xlink:href="#DejaVuSans-74" x="638.476562"/>
      <use xlink:href="#DejaVuSans-6f" x="677.685547"/>
      <use xlink:href="#DejaVuSans-72" x="738.867188"/>
      <use xlink:href="#DejaVuSans-79" x="779.980469"/>
      <use xlink:href="#DejaVuSans-20" x="839.160156"/>
      <use xlink:href="#DejaVuSans-6f" x="870.947266"/>
      <use xlink:href="#DejaVuSans-66" x="932.128906"/>
      <use xlink:href="#DejaVuSans-20" x="967.333984"/>
      <use xlink:href="#DejaVuSans-70" x="999.121094"/>
      <use xlink:href="#DejaVuSans-72" x="1062.597656"/>
      <use xlink:href="#DejaVuSans-6f" x="1101.460938"/>
      <use xlink:href="#DejaVuSans-64" x="1162.642578"/>
      <use xlink:href="#DejaVuSans-75" x="1226.119141"/>
      <use xlink:href="#DejaVuSans-63" x="1289.498047"/>
      <use xlink:href="#DejaVuSans-74" x="1344.478516"/>
      <use xlink:href="#DejaVuSans-73" x="1383.6875"/>
      <use xlink:href="#DejaVuSans-20" x="1435.787109"/>
      <use xlink:href="#DejaVuSans-69" x="1467.574219"/>
      <use xlink:href="#DejaVuSans-6e" x="1495.357422"/>
      <use xlink:href="#DejaVuSans-20" x="1558.736328"/>
      <use xlink:href="#DejaVuSans-73" x="1590.523438"/>
      <use xlink:href="#DejaVuSans-65" x="1642.623047"/>
      <use xlink:href="#DejaVuSans-74" x="1704.146484"/>
     </g>
    </g>
   </g>
   <g id="matplotlib.axis_2">
    <g id="ytick_1">
     <g id="line2d_19">
      <path d="M 44.749063 509.875457 
L 865.19952 509.875457 
" clip-path="url(#p7f4c8af6af)" style="fill: none; stroke: #e6e6e6; stroke-width: 0.9; stroke-linecap: square"/>
     </g>
     <g id="line2d_20">
      <defs>
       <path id="m4a757bbb9f" d="M 0 0 
L -3.5 0 
" style="stroke: #000000; stroke-width: 0.8"/>
      </defs>
      <g>
       <use xlink:href="#m4a757bbb9f" x="44.749063" y="509.875457" style="stroke: #000000; stroke-width: 0.8"/>
      </g>
     </g>
     <g id="text_8">
      <!-- 0.0 -->
      <g transform="translate(21.845938 513.674676) scale(0.1 -0.1)">
       <defs>
        <path id="DejaVuSans-2e" d="M 684 794 
L 1344 794 
L 1344 0 
L 684 0 
L 684 794 
z
" transform="scale(0.015625)"/>
       </defs>
       <use xlink:href="#DejaVuSans-30"/>
       <use xlink:href="#DejaVuSans-2e" x="63.623047"/>
       <use xlink:href="#DejaVuSans-30" x="95.410156"/>
      </g>
     </g>
    </g>
    <g id="ytick_2">
     <g id="line2d_21">
      <path d="M 44.749063 418.856087 
L 865.19952 418.856087 
" clip-path="url(#p7f4c8af6af)" style="fill: none; stroke: #e6e6e6; stroke-width: 0.9; stroke-linecap: square"/>
     </g>
     <g id="line2d_22">
      <g>
       <use xlink:href="#m4a757bbb9f" x="44.749063" y="418.856087" style="stroke: #000000; stroke-width: 0.8"/>
      </g>
     </g>
     <g id="text_9">
      <!-- 0.2 -->
      <g transform="translate(21.845938 422.655306) scale(0.1 -0.1)">
       <use xlink:href="#DejaVuSans-30"/>
       <use xlink:href="#DejaVuSans-2e" x="63.623047"/>
       <use xlink:href="#DejaVuSans-32" x="95.410156"/>
      </g>
     </g>
    </g>
    <g id="ytick_3">
     <g id="line2d_23">
      <path d="M 44.749063 327.836716 
L 865.19952 327.836716 
" clip-path="url(#p7f4c8af6af)" style="fill: none; stroke: #e6e6e6; stroke-width: 0.9; stroke-linecap: square"/>
     </g>
     <g id="line2d_24">
      <g>
       <use xlink:href="#m4a757bbb9f" x="44.749063" y="327.836716" style="stroke: #000000; stroke-width: 0.8"/>
      </g>
     </g>
     <g id="text_10">
      <!-- 0.4 -->
      <g transform="translate(21.845938 331.635935) scale(0.1 -0.1)">
       <defs>
        <path id="DejaVuSans-34" d="M 2419 4116 
L 825 1625 
L 2419 1625 
L 2419 4116 
z
M 2253 4666 
L 3047 4666 
L 3047 1625 
L 3713 1625 
L 3713 1100 
L 3047 1100 
L 3047 0 
L 2419 0 
L 2419 1100 
L 313 1100 
L 313 1709 
L 2253 4666 
z
" transform="scale(0.015625)"/>
       </defs>
       <use xlink:href="#DejaVuSans-30"/>
       <use xlink:href="#DejaVuSans-2e" x="63.623047"/>
       <use xlink:href="#DejaVuSans-34" x="95.410156"/>
      </g>
     </g>
    </g>
    <g id="ytick_4">
     <g id="line2d_25">
      <path d="M 44.749063 236.817346 
L 865.19952 236.817346 
" clip-path="url(#p7f4c8af6af)" style="fill: none; stroke: #e6e6e6; stroke-width: 0.9; stroke-linecap: square"/>
     </g>
     <g id="line2d_26">
      <g>
       <use xlink:href="#m4a757bbb9f" x="44.749063" y="236.817346" style="stroke: #000000; stroke-width: 0.8"/>
      </g>
     </g>
     <g id="text_11">
      <!-- 0.6 -->
      <g transform="translate(21.845938 240.616565) scale(0.1 -0.1)">
       <defs>
        <path id="DejaVuSans-36" d="M 2113 2584 
Q 1688 2584 1439 2293 
Q 1191 2003 1191 1497 
Q 1191 994 1439 701 
Q 1688 409 2113 409 
Q 2538 409 2786 701 
Q 3034 994 3034 1497 
Q 3034 2003 2786 2293 
Q 2538 2584 2113 2584 
z
M 3366 4563 
L 3366 3988 
Q 3128 4100 2886 4159 
Q 2644 4219 2406 4219 
Q 1781 4219 1451 3797 
Q 1122 3375 1075 2522 
Q 1259 2794 1537 2939 
Q 1816 3084 2150 3084 
Q 2853 3084 3261 2657 
Q 3669 2231 3669 1497 
Q 3669 778 3244 343 
Q 2819 -91 2113 -91 
Q 1303 -91 875 529 
Q 447 1150 447 2328 
Q 447 3434 972 4092 
Q 1497 4750 2381 4750 
Q 2619 4750 2861 4703 
Q 3103 4656 3366 4563 
z
" transform="scale(0.015625)"/>
       </defs>
       <use xlink:href="#DejaVuSans-30"/>
       <use xlink:href="#DejaVuSans-2e" x="63.623047"/>
       <use xlink:href="#DejaVuSans-36" x="95.410156"/>
      </g>
     </g>
    </g>
    <g id="ytick_5">
     <g id="line2d_27">
      <path d="M 44.749063 145.797975 
L 865.19952 145.797975 
" clip-path="url(#p7f4c8af6af)" style="fill: none; stroke: #e6e6e6; stroke-width: 0.9; stroke-linecap: square"/>
     </g>
     <g id="line2d_28">
      <g>
       <use xlink:href="#m4a757bbb9f" x="44.749063" y="145.797975" style="stroke: #000000; stroke-width: 0.8"/>
      </g>
     </g>
     <g id="text_12">
      <!-- 0.8 -->
      <g transform="translate(21.845938 149.597194) scale(0.1 -0.1)">
       <defs>
        <path id="DejaVuSans-38" d="M 2034 2216 
Q 1584 2216 1326 1975 
Q 1069 1734 1069 1313 
Q 1069 891 1326 650 
Q 1584 409 2034 409 
Q 2484 409 2743 651 
Q 3003 894 3003 1313 
Q 3003 1734 2745 1975 
Q 2488 2216 2034 2216 
z
M 1403 2484 
Q 997 2584 770 2862 
Q 544 3141 544 3541 
Q 544 4100 942 4425 
Q 1341 4750 2034 4750 
Q 2731 4750 3128 4425 
Q 3525 4100 3525 3541 
Q 3525 3141 3298 2862 
Q 3072 2584 2669 2484 
Q 3125 2378 3379 2068 
Q 3634 1759 3634 1313 
Q 3634 634 3220 271 
Q 2806 -91 2034 -91 
Q 1263 -91 848 271 
Q 434 634 434 1313 
Q 434 1759 690 2068 
Q 947 2378 1403 2484 
z
M 1172 3481 
Q 1172 3119 1398 2916 
Q 1625 2713 2034 2713 
Q 2441 2713 2670 2916 
Q 2900 3119 2900 3481 
Q 2900 3844 2670 4047 
Q 2441 4250 2034 4250 
Q 1625 4250 1398 4047 
Q 1172 3844 1172 3481 
z
" transform="scale(0.015625)"/>
       </defs>
       <use xlink:href="#DejaVuSans-30"/>
       <use xlink:href="#DejaVuSans-2e" x="63.623047"/>
       <use xlink:href="#DejaVuSans-38" x="95.410156"/>
      </g>
     </g>
    </g>
    <g id="ytick_6">
     <g id="line2d_29">
      <path d="M 44.749063 54.778605 
L 865.19952 54.778605 
" clip-path="url(#p7f4c8af6af)" style="fill: none; stroke: #e6e6e6; stroke-width: 0.9; stroke-linecap: square"/>
     </g>
     <g id="line2d_30">
      <g>
       <use xlink:href="#m4a757bbb9f" x="44.749063" y="54.778605" style="stroke: #000000; stroke-width: 0.8"/>
      </g>
     </g>
     <g id="text_13">
      <!-- 1.0 -->
      <g transform="translate(21.845938 58.577824) scale(0.1 -0.1)">
       <use xlink:href="#DejaVuSans-31"/>
       <use xlink:href="#DejaVuSans-2e" x="63.623047"/>
       <use xlink:href="#DejaVuSans-30" x="95.410156"/>
      </g>
     </g>
    </g>
    <g id="text_14">
     <!-- Average weighted combined score -->
     <g transform="translate(15.558281 377.480469) rotate(-90) scale(0.11 -0.11)">
      <defs>
       <path id="DejaVuSans-41" d="M 2188 4044 
L 1331 1722 
L 3047 1722 
L 2188 4044 
z
M 1831 4666 
L 2547 4666 
L 4325 0 
L 3669 0 
L 3244 1197 
L 1141 1197 
L 716 0 
L 50 0 
L 1831 4666 
z
" transform="scale(0.015625)"/>
       <path id="DejaVuSans-76" d="M 191 3500 
L 800 3500 
L 1894 563 
L 2988 3500 
L 3597 3500 
L 2284 0 
L 1503 0 
L 191 3500 
z
" transform="scale(0.015625)"/>
       <path id="DejaVuSans-61" d="M 2194 1759 
Q 1497 1759 1228 1600 
Q 959 1441 959 1056 
Q 959 750 1161 570 
Q 1363 391 1709 391 
Q 2188 391 2477 730 
Q 2766 1069 2766 1631 
L 2766 1759 
L 2194 1759 
z
M 3341 1997 
L 3341 0 
L 2766 0 
L 2766 531 
Q 2569 213 2275 61 
Q 1981 -91 1556 -91 
Q 1019 -91 701 211 
Q 384 513 384 1019 
Q 384 1609 779 1909 
Q 1175 2209 1959 2209 
L 2766 2209 
L 2766 2266 
Q 2766 2663 2505 2880 
Q 2244 3097 1772 3097 
Q 1472 3097 1187 3025 
Q 903 2953 641 2809 
L 641 3341 
Q 956 3463 1253 3523 
Q 1550 3584 1831 3584 
Q 2591 3584 2966 3190 
Q 3341 2797 3341 1997 
z
" transform="scale(0.015625)"/>
       <path id="DejaVuSans-67" d="M 2906 1791 
Q 2906 2416 2648 2759 
Q 2391 3103 1925 3103 
Q 1463 3103 1205 2759 
Q 947 2416 947 1791 
Q 947 1169 1205 825 
Q 1463 481 1925 481 
Q 2391 481 2648 825 
Q 2906 1169 2906 1791 
z
M 3481 434 
Q 3481 -459 3084 -895 
Q 2688 -1331 1869 -1331 
Q 1566 -1331 1297 -1286 
Q 1028 -1241 775 -1147 
L 775 -588 
Q 1028 -725 1275 -790 
Q 1522 -856 1778 -856 
Q 2344 -856 2625 -561 
Q 2906 -266 2906 331 
L 2906 616 
Q 2728 306 2450 153 
Q 2172 0 1784 0 
Q 1141 0 747 490 
Q 353 981 353 1791 
Q 353 2603 747 3093 
Q 1141 3584 1784 3584 
Q 2172 3584 2450 3431 
Q 2728 3278 2906 2969 
L 2906 3500 
L 3481 3500 
L 3481 434 
z
" transform="scale(0.015625)"/>
       <path id="DejaVuSans-77" d="M 269 3500 
L 844 3500 
L 1563 769 
L 2278 3500 
L 2956 3500 
L 3675 769 
L 4391 3500 
L 4966 3500 
L 4050 0 
L 3372 0 
L 2619 2869 
L 1863 0 
L 1184 0 
L 269 3500 
z
" transform="scale(0.015625)"/>
       <path id="DejaVuSans-62" d="M 3116 1747 
Q 3116 2381 2855 2742 
Q 2594 3103 2138 3103 
Q 1681 3103 1420 2742 
Q 1159 2381 1159 1747 
Q 1159 1113 1420 752 
Q 1681 391 2138 391 
Q 2594 391 2855 752 
Q 3116 1113 3116 1747 
z
M 1159 2969 
Q 1341 3281 1617 3432 
Q 1894 3584 2278 3584 
Q 2916 3584 3314 3078 
Q 3713 2572 3713 1747 
Q 3713 922 3314 415 
Q 2916 -91 2278 -91 
Q 1894 -91 1617 61 
Q 1341 213 1159 525 
L 1159 0 
L 581 0 
L 581 4863 
L 1159 4863 
L 1159 2969 
z
" transform="scale(0.015625)"/>
      </defs>
      <use xlink:href="#DejaVuSans-41"/>
      <use xlink:href="#DejaVuSans-76" x="62.533203"/>
      <use xlink:href="#DejaVuSans-65" x="121.712891"/>
      <use xlink:href="#DejaVuSans-72" x="183.236328"/>
      <use xlink:href="#DejaVuSans-61" x="224.349609"/>
      <use xlink:href="#DejaVuSans-67" x="285.628906"/>
      <use xlink:href="#DejaVuSans-65" x="349.105469"/>
      <use xlink:href="#DejaVuSans-20" x="410.628906"/>
      <use xlink:href="#DejaVuSans-77" x="442.416016"/>
      <use xlink:href="#DejaVuSans-65" x="524.203125"/>
      <use xlink:href="#DejaVuSans-69" x="585.726562"/>
      <use xlink:href="#DejaVuSans-67" x="613.509766"/>
      <use xlink:href="#DejaVuSans-68" x="676.986328"/>
      <use xlink:href="#DejaVuSans-74" x="740.365234"/>
      <use xlink:href="#DejaVuSans-65" x="779.574219"/>
      <use xlink:href="#DejaVuSans-64" x="841.097656"/>
      <use xlink:href="#DejaVuSans-20" x="904.574219"/>
      <use xlink:href="#DejaVuSans-63" x="936.361328"/>
      <use xlink:href="#DejaVuSans-6f" x="991.341797"/>
      <use xlink:href="#DejaVuSans-6d" x="1052.523438"/>
      <use xlink:href="#DejaVuSans-62" x="1149.935547"/>
      <use xlink:href="#DejaVuSans-69" x="1213.412109"/>
      <use xlink:href="#DejaVuSans-6e" x="1241.195312"/>
      <use xlink:href="#DejaVuSans-65" x="1304.574219"/>
      <use xlink:href="#DejaVuSans-64" x="1366.097656"/>
      <use xlink:href="#DejaVuSans-20" x="1429.574219"/>
      <use xlink:href="#DejaVuSans-73" x="1461.361328"/>
      <use xlink:href="#DejaVuSans-63" x="1513.460938"/>
      <use xlink:href="#DejaVuSans-6f" x="1568.441406"/>
      <use xlink:href="#DejaVuSans-72" x="1629.623047"/>
      <use xlink:href="#DejaVuSans-65" x="1668.486328"/>
     </g>
    </g>
   </g>
   <g id="line2d_31">
    <path d="M 60.526956 238.264693 
L 218.30589 230.35108 
L 376.084824 245.913698 
L 533.863758 243.848936 
L 691.642692 246.113062 
L 849.421627 231.864879 
" clip-path="url(#p7f4c8af6af)" style="fill: none; stroke: #009e73; stroke-opacity: 0.95; stroke-width: 2.2; stroke-linecap: square"/>
    <defs>
     <path id="m03ea072d15" d="M 0 2.75 
C 0.729309 2.75 1.428845 2.460243 1.944544 1.944544 
C 2.460243 1.428845 2.75 0.729309 2.75 0 
C 2.75 -0.729309 2.460243 -1.428845 1.944544 -1.944544 
C 1.428845 -2.460243 0.729309 -2.75 0 -2.75 
C -0.729309 -2.75 -1.428845 -2.460243 -1.944544 -1.944544 
C -2.460243 -1.428845 -2.75 -0.729309 -2.75 0 
C -2.75 0.729309 -2.460243 1.428845 -1.944544 1.944544 
C -1.428845 2.460243 -0.729309 2.75 0 2.75 
z
" style="stroke: #009e73; stroke-opacity: 0.95"/>
    </defs>
    <g clip-path="url(#p7f4c8af6af)">
     <use xlink:href="#m03ea072d15" x="60.526956" y="238.264693" style="fill: #009e73; fill-opacity: 0.95; stroke: #009e73; stroke-opacity: 0.95"/>
     <use xlink:href="#m03ea072d15" x="218.30589" y="230.35108" style="fill: #009e73; fill-opacity: 0.95; stroke: #009e73; stroke-opacity: 0.95"/>
     <use xlink:href="#m03ea072d15" x="376.084824" y="245.913698" style="fill: #009e73; fill-opacity: 0.95; stroke: #009e73; stroke-opacity: 0.95"/>
     <use xlink:href="#m03ea072d15" x="533.863758" y="243.848936" style="fill: #009e73; fill-opacity: 0.95; stroke: #009e73; stroke-opacity: 0.95"/>
     <use xlink:href="#m03ea072d15" x="691.642692" y="246.113062" style="fill: #009e73; fill-opacity: 0.95; stroke: #009e73; stroke-opacity: 0.95"/>
     <use xlink:href="#m03ea072d15" x="849.421627" y="231.864879" style="fill: #009e73; fill-opacity: 0.95; stroke: #009e73; stroke-opacity: 0.95"/>
    </g>
   </g>
   <g id="line2d_32">
    <path d="M 60.526956 144.76577 
L 218.30589 139.637833 
L 376.084824 144.694785 
L 533.863758 135.278491 
L 691.642692 117.702016 
L 849.421627 112.531431 
" clip-path="url(#p7f4c8af6af)" style="fill: none; stroke: #d55e00; stroke-opacity: 0.95; stroke-width: 2.2; stroke-linecap: square"/>
    <defs>
     <path id="m1c67c92af6" d="M 0 2.75 
C 0.729309 2.75 1.428845 2.460243 1.944544 1.944544 
C 2.460243 1.428845 2.75 0.729309 2.75 0 
C 2.75 -0.729309 2.460243 -1.428845 1.944544 -1.944544 
C 1.428845 -2.460243 0.729309 -2.75 0 -2.75 
C -0.729309 -2.75 -1.428845 -2.460243 -1.944544 -1.944544 
C -2.460243 -1.428845 -2.75 -0.729309 -2.75 0 
C -2.75 0.729309 -2.460243 1.428845 -1.944544 1.944544 
C -1.428845 2.460243 -0.729309 2.75 0 2.75 
z
" style="stroke: #d55e00; stroke-opacity: 0.95"/>
    </defs>
    <g clip-path="url(#p7f4c8af6af)">
     <use xlink:href="#m1c67c92af6" x="60.526956" y="144.76577" style="fill: #d55e00; fill-opacity: 0.95; stroke: #d55e00; stroke-opacity: 0.95"/>
     <use xlink:href="#m1c67c92af6" x="218.30589" y="139.637833" style="fill: #d55e00; fill-opacity: 0.95; stroke: #d55e00; stroke-opacity: 0.95"/>
     <use xlink:href="#m1c67c92af6" x="376.084824" y="144.694785" style="fill: #d55e00; fill-opacity: 0.95; stroke: #d55e00; stroke-opacity: 0.95"/>
     <use xlink:href="#m1c67c92af6" x="533.863758" y="135.278491" style="fill: #d55e00; fill-opacity: 0.95; stroke: #d55e00; stroke-opacity: 0.95"/>
     <use xlink:href="#m1c67c92af6" x="691.642692" y="117.702016" style="fill: #d55e00; fill-opacity: 0.95; stroke: #d55e00; stroke-opacity: 0.95"/>
     <use xlink:href="#m1c67c92af6" x="849.421627" y="112.531431" style="fill: #d55e00; fill-opacity: 0.95; stroke: #d55e00; stroke-opacity: 0.95"/>
    </g>
   </g>
   <g id="line2d_33">
    <path d="M 60.526956 240.02444 
L 218.30589 228.759132 
L 376.084824 233.909469 
L 533.863758 241.90392 
L 691.642692 238.847503 
L 849.421627 236.352479 
" clip-path="url(#p7f4c8af6af)" style="fill: none; stroke-dasharray: 8.14,3.52; stroke-dashoffset: 0; stroke: #009e73; stroke-opacity: 0.95; stroke-width: 2.2"/>
    <defs>
     <path id="me3dd38daa3" d="M -2.75 2.75 
L 2.75 2.75 
L 2.75 -2.75 
L -2.75 -2.75 
z
" style="stroke: #009e73; stroke-opacity: 0.95; stroke-linejoin: miter"/>
    </defs>
    <g clip-path="url(#p7f4c8af6af)">
     <use xlink:href="#me3dd38daa3" x="60.526956" y="240.02444" style="fill: #009e73; fill-opacity: 0.95; stroke: #009e73; stroke-opacity: 0.95; stroke-linejoin: miter"/>
     <use xlink:href="#me3dd38daa3" x="218.30589" y="228.759132" style="fill: #009e73; fill-opacity: 0.95; stroke: #009e73; stroke-opacity: 0.95; stroke-linejoin: miter"/>
     <use xlink:href="#me3dd38daa3" x="376.084824" y="233.909469" style="fill: #009e73; fill-opacity: 0.95; stroke: #009e73; stroke-opacity: 0.95; stroke-linejoin: miter"/>
     <use xlink:href="#me3dd38daa3" x="533.863758" y="241.90392" style="fill: #009e73; fill-opacity: 0.95; stroke: #009e73; stroke-opacity: 0.95; stroke-linejoin: miter"/>
     <use xlink:href="#me3dd38daa3" x="691.642692" y="238.847503" style="fill: #009e73; fill-opacity: 0.95; stroke: #009e73; stroke-opacity: 0.95; stroke-linejoin: miter"/>
     <use xlink:href="#me3dd38daa3" x="849.421627" y="236.352479" style="fill: #009e73; fill-opacity: 0.95; stroke: #009e73; stroke-opacity: 0.95; stroke-linejoin: miter"/>
    </g>
   </g>
   <g id="line2d_34">
    <path d="M 60.526956 140.261412 
L 218.30589 131.907859 
L 376.084824 130.827147 
L 533.863758 127.266599 
L 691.642692 116.986225 
L 849.421627 113.251396 
" clip-path="url(#p7f4c8af6af)" style="fill: none; stroke-dasharray: 8.14,3.52; stroke-dashoffset: 0; stroke: #d55e00; stroke-opacity: 0.95; stroke-width: 2.2"/>
    <defs>
     <path id="m05502acb83" d="M -2.75 2.75 
L 2.75 2.75 
L 2.75 -2.75 
L -2.75 -2.75 
z
" style="stroke: #d55e00; stroke-opacity: 0.95; stroke-linejoin: miter"/>
    </defs>
    <g clip-path="url(#p7f4c8af6af)">
     <use xlink:href="#m05502acb83" x="60.526956" y="140.261412" style="fill: #d55e00; fill-opacity: 0.95; stroke: #d55e00; stroke-opacity: 0.95; stroke-linejoin: miter"/>
     <use xlink:href="#m05502acb83" x="218.30589" y="131.907859" style="fill: #d55e00; fill-opacity: 0.95; stroke: #d55e00; stroke-opacity: 0.95; stroke-linejoin: miter"/>
     <use xlink:href="#m05502acb83" x="376.084824" y="130.827147" style="fill: #d55e00; fill-opacity: 0.95; stroke: #d55e00; stroke-opacity: 0.95; stroke-linejoin: miter"/>
     <use xlink:href="#m05502acb83" x="533.863758" y="127.266599" style="fill: #d55e00; fill-opacity: 0.95; stroke: #d55e00; stroke-opacity: 0.95; stroke-linejoin: miter"/>
     <use xlink:href="#m05502acb83" x="691.642692" y="116.986225" style="fill: #d55e00; fill-opacity: 0.95; stroke: #d55e00; stroke-opacity: 0.95; stroke-linejoin: miter"/>
     <use xlink:href="#m05502acb83" x="849.421627" y="113.251396" style="fill: #d55e00; fill-opacity: 0.95; stroke: #d55e00; stroke-opacity: 0.95; stroke-linejoin: miter"/>
    </g>
   </g>
   <g id="line2d_35">
    <path d="M 60.526956 231.659413 
L 218.30589 231.802215 
L 376.084824 218.985185 
L 533.863758 217.631351 
L 691.642692 219.101165 
L 849.421627 212.901714 
" clip-path="url(#p7f4c8af6af)" style="fill: none; stroke-dasharray: 2.2,3.63; stroke-dashoffset: 0; stroke: #009e73; stroke-opacity: 0.95; stroke-width: 2.2"/>
    <defs>
     <path id="m0e070586d6" d="M 0 -2.75 
L -2.75 2.75 
L 2.75 2.75 
z
" style="stroke: #009e73; stroke-opacity: 0.95; stroke-linejoin: miter"/>
    </defs>
    <g clip-path="url(#p7f4c8af6af)">
     <use xlink:href="#m0e070586d6" x="60.526956" y="231.659413" style="fill: #009e73; fill-opacity: 0.95; stroke: #009e73; stroke-opacity: 0.95; stroke-linejoin: miter"/>
     <use xlink:href="#m0e070586d6" x="218.30589" y="231.802215" style="fill: #009e73; fill-opacity: 0.95; stroke: #009e73; stroke-opacity: 0.95; stroke-linejoin: miter"/>
     <use xlink:href="#m0e070586d6" x="376.084824" y="218.985185" style="fill: #009e73; fill-opacity: 0.95; stroke: #009e73; stroke-opacity: 0.95; stroke-linejoin: miter"/>
     <use xlink:href="#m0e070586d6" x="533.863758" y="217.631351" style="fill: #009e73; fill-opacity: 0.95; stroke: #009e73; stroke-opacity: 0.95; stroke-linejoin: miter"/>
     <use xlink:href="#m0e070586d6" x="691.642692" y="219.101165" style="fill: #009e73; fill-opacity: 0.95; stroke: #009e73; stroke-opacity: 0.95; stroke-linejoin: miter"/>
     <use xlink:href="#m0e070586d6" x="849.421627" y="212.901714" style="fill: #009e73; fill-opacity: 0.95; stroke: #009e73; stroke-opacity: 0.95; stroke-linejoin: miter"/>
    </g>
   </g>
   <g id="line2d_36">
    <path d="M 60.526956 129.68864 
L 218.30589 131.36779 
L 376.084824 118.594091 
L 533.863758 115.873624 
L 691.642692 108.24899 
L 849.421627 114.223278 
" clip-path="url(#p7f4c8af6af)" style="fill: none; stroke-dasharray: 2.2,3.63; stroke-dashoffset: 0; stroke: #d55e00; stroke-opacity: 0.95; stroke-width: 2.2"/>
    <defs>
     <path id="m5e2f523354" d="M 0 -2.75 
L -2.75 2.75 
L 2.75 2.75 
z
" style="stroke: #d55e00; stroke-opacity: 0.95; stroke-linejoin: miter"/>
    </defs>
    <g clip-path="url(#p7f4c8af6af)">
     <use xlink:href="#m5e2f523354" x="60.526956" y="129.68864" style="fill: #d55e00; fill-opacity: 0.95; stroke: #d55e00; stroke-opacity: 0.95; stroke-linejoin: miter"/>
     <use xlink:href="#m5e2f523354" x="218.30589" y="131.36779" style="fill: #d55e00; fill-opacity: 0.95; stroke: #d55e00; stroke-opacity: 0.95; stroke-linejoin: miter"/>
     <use xlink:href="#m5e2f523354" x="376.084824" y="118.594091" style="fill: #d55e00; fill-opacity: 0.95; stroke: #d55e00; stroke-opacity: 0.95; stroke-linejoin: miter"/>
     <use xlink:href="#m5e2f523354" x="533.863758" y="115.873624" style="fill: #d55e00; fill-opacity: 0.95; stroke: #d55e00; stroke-opacity: 0.95; stroke-linejoin: miter"/>
     <use xlink:href="#m5e2f523354" x="691.642692" y="108.24899" style="fill: #d55e00; fill-opacity: 0.95; stroke: #d55e00; stroke-opacity: 0.95; stroke-linejoin: miter"/>
     <use xlink:href="#m5e2f523354" x="849.421627" y="114.223278" style="fill: #d55e00; fill-opacity: 0.95; stroke: #d55e00; stroke-opacity: 0.95; stroke-linejoin: miter"/>
    </g>
   </g>
   <g id="patch_3">
    <path d="M 44.749063 509.875457 
L 44.749063 54.778605 
" style="fill: none; stroke: #000000; stroke-width: 0.8; stroke-linejoin: miter; stroke-linecap: square"/>
   </g>
   <g id="patch_4">
    <path d="M 44.749063 509.875457 
L 865.19952 509.875457 
" style="fill: none; stroke: #000000; stroke-width: 0.8; stroke-linejoin: miter; stroke-linecap: square"/>
   </g>
   <g id="text_15">
    <!-- Average Weighted Combined F1 and G-mean by Sampled Minimum History -->
    <g transform="translate(153.783041 42.778605) scale(0.16 -0.16)">
     <defs>
      <path id="DejaVuSans-57" d="M 213 4666 
L 850 4666 
L 1831 722 
L 2809 4666 
L 3519 4666 
L 4500 722 
L 5478 4666 
L 6119 4666 
L 4947 0 
L 4153 0 
L 3169 4050 
L 2175 0 
L 1381 0 
L 213 4666 
z
" transform="scale(0.015625)"/>
      <path id="DejaVuSans-43" d="M 4122 4306 
L 4122 3641 
Q 3803 3938 3442 4084 
Q 3081 4231 2675 4231 
Q 1875 4231 1450 3742 
Q 1025 3253 1025 2328 
Q 1025 1406 1450 917 
Q 1875 428 2675 428 
Q 3081 428 3442 575 
Q 3803 722 4122 1019 
L 4122 359 
Q 3791 134 3420 21 
Q 3050 -91 2638 -91 
Q 1578 -91 968 557 
Q 359 1206 359 2328 
Q 359 3453 968 4101 
Q 1578 4750 2638 4750 
Q 3056 4750 3426 4639 
Q 3797 4528 4122 4306 
z
" transform="scale(0.015625)"/>
      <path id="DejaVuSans-46" d="M 628 4666 
L 3309 4666 
L 3309 4134 
L 1259 4134 
L 1259 2759 
L 3109 2759 
L 3109 2228 
L 1259 2228 
L 1259 0 
L 628 0 
L 628 4666 
z
" transform="scale(0.015625)"/>
      <path id="DejaVuSans-47" d="M 3809 666 
L 3809 1919 
L 2778 1919 
L 2778 2438 
L 4434 2438 
L 4434 434 
Q 4069 175 3628 42 
Q 3188 -91 2688 -91 
Q 1594 -91 976 548 
Q 359 1188 359 2328 
Q 359 3472 976 4111 
Q 1594 4750 2688 4750 
Q 3144 4750 3555 4637 
Q 3966 4525 4313 4306 
L 4313 3634 
Q 3963 3931 3569 4081 
Q 3175 4231 2741 4231 
Q 1884 4231 1454 3753 
Q 1025 3275 1025 2328 
Q 1025 1384 1454 906 
Q 1884 428 2741 428 
Q 3075 428 3337 486 
Q 3600 544 3809 666 
z
" transform="scale(0.015625)"/>
      <path id="DejaVuSans-2d" d="M 313 2009 
L 1997 2009 
L 1997 1497 
L 313 1497 
L 313 2009 
z
" transform="scale(0.015625)"/>
      <path id="DejaVuSans-53" d="M 3425 4513 
L 3425 3897 
Q 3066 4069 2747 4153 
Q 2428 4238 2131 4238 
Q 1616 4238 1336 4038 
Q 1056 3838 1056 3469 
Q 1056 3159 1242 3001 
Q 1428 2844 1947 2747 
L 2328 2669 
Q 3034 2534 3370 2195 
Q 3706 1856 3706 1288 
Q 3706 609 3251 259 
Q 2797 -91 1919 -91 
Q 1588 -91 1214 -16 
Q 841 59 441 206 
L 441 856 
Q 825 641 1194 531 
Q 1563 422 1919 422 
Q 2459 422 2753 634 
Q 3047 847 3047 1241 
Q 3047 1584 2836 1778 
Q 2625 1972 2144 2069 
L 1759 2144 
Q 1053 2284 737 2584 
Q 422 2884 422 3419 
Q 422 4038 858 4394 
Q 1294 4750 2059 4750 
Q 2388 4750 2728 4690 
Q 3069 4631 3425 4513 
z
" transform="scale(0.015625)"/>
      <path id="DejaVuSans-6c" d="M 603 4863 
L 1178 4863 
L 1178 0 
L 603 0 
L 603 4863 
z
" transform="scale(0.015625)"/>
      <path id="DejaVuSans-48" d="M 628 4666 
L 1259 4666 
L 1259 2753 
L 3553 2753 
L 3553 4666 
L 4184 4666 
L 4184 0 
L 3553 0 
L 3553 2222 
L 1259 2222 
L 1259 0 
L 628 0 
L 628 4666 
z
" transform="scale(0.015625)"/>
     </defs>
     <use xlink:href="#DejaVuSans-41"/>
     <use xlink:href="#DejaVuSans-76" x="62.533203"/>
     <use xlink:href="#DejaVuSans-65" x="121.712891"/>
     <use xlink:href="#DejaVuSans-72" x="183.236328"/>
     <use xlink:href="#DejaVuSans-61" x="224.349609"/>
     <use xlink:href="#DejaVuSans-67" x="285.628906"/>
     <use xlink:href="#DejaVuSans-65" x="349.105469"/>
     <use xlink:href="#DejaVuSans-20" x="410.628906"/>
     <use xlink:href="#DejaVuSans-57" x="442.416016"/>
     <use xlink:href="#DejaVuSans-65" x="535.417969"/>
     <use xlink:href="#DejaVuSans-69" x="596.941406"/>
     <use xlink:href="#DejaVuSans-67" x="624.724609"/>
     <use xlink:href="#DejaVuSans-68" x="688.201172"/>
     <use xlink:href="#DejaVuSans-74" x="751.580078"/>
     <use xlink:href="#DejaVuSans-65" x="790.789062"/>
     <use xlink:href="#DejaVuSans-64" x="852.3125"/>
     <use xlink:href="#DejaVuSans-20" x="915.789062"/>
     <use xlink:href="#DejaVuSans-43" x="947.576172"/>
     <use xlink:href="#DejaVuSans-6f" x="1017.400391"/>
     <use xlink:href="#DejaVuSans-6d" x="1078.582031"/>
     <use xlink:href="#DejaVuSans-62" x="1175.994141"/>
     <use xlink:href="#DejaVuSans-69" x="1239.470703"/>
     <use xlink:href="#DejaVuSans-6e" x="1267.253906"/>
     <use xlink:href="#DejaVuSans-65" x="1330.632812"/>
     <use xlink:href="#DejaVuSans-64" x="1392.15625"/>
     <use xlink:href="#DejaVuSans-20" x="1455.632812"/>
     <use xlink:href="#DejaVuSans-46" x="1487.419922"/>
     <use xlink:href="#DejaVuSans-31" x="1544.939453"/>
     <use xlink:href="#DejaVuSans-20" x="1608.5625"/>
     <use xlink:href="#DejaVuSans-61" x="1640.349609"/>
     <use xlink:href="#DejaVuSans-6e" x="1701.628906"/>
     <use xlink:href="#DejaVuSans-64" x="1765.007812"/>
     <use xlink:href="#DejaVuSans-20" x="1828.484375"/>
     <use xlink:href="#DejaVuSans-47" x="1860.271484"/>
     <use xlink:href="#DejaVuSans-2d" x="1937.761719"/>
     <use xlink:href="#DejaVuSans-6d" x="1973.845703"/>
     <use xlink:href="#DejaVuSans-65" x="2071.257812"/>
     <use xlink:href="#DejaVuSans-61" x="2132.78125"/>
     <use xlink:href="#DejaVuSans-6e" x="2194.060547"/>
     <use xlink:href="#DejaVuSans-20" x="2257.439453"/>
     <use xlink:href="#DejaVuSans-62" x="2289.226562"/>
     <use xlink:href="#DejaVuSans-79" x="2352.703125"/>
     <use xlink:href="#DejaVuSans-20" x="2411.882812"/>
     <use xlink:href="#DejaVuSans-53" x="2443.669922"/>
     <use xlink:href="#DejaVuSans-61" x="2507.146484"/>
     <use xlink:href="#DejaVuSans-6d" x="2568.425781"/>
     <use xlink:href="#DejaVuSans-70" x="2665.837891"/>
     <use xlink:href="#DejaVuSans-6c" x="2729.314453"/>
     <use xlink:href="#DejaVuSans-65" x="2757.097656"/>
     <use xlink:href="#DejaVuSans-64" x="2818.621094"/>
     <use xlink:href="#DejaVuSans-20" x="2882.097656"/>
     <use xlink:href="#DejaVuSans-4d" x="2913.884766"/>
     <use xlink:href="#DejaVuSans-69" x="3000.164062"/>
     <use xlink:href="#DejaVuSans-6e" x="3027.947266"/>
     <use xlink:href="#DejaVuSans-69" x="3091.326172"/>
     <use xlink:href="#DejaVuSans-6d" x="3119.109375"/>
     <use xlink:href="#DejaVuSans-75" x="3216.521484"/>
     <use xlink:href="#DejaVuSans-6d" x="3279.900391"/>
     <use xlink:href="#DejaVuSans-20" x="3377.3125"/>
     <use xlink:href="#DejaVuSans-48" x="3409.099609"/>
     <use xlink:href="#DejaVuSans-69" x="3484.294922"/>
     <use xlink:href="#DejaVuSans-73" x="3512.078125"/>
     <use xlink:href="#DejaVuSans-74" x="3564.177734"/>
     <use xlink:href="#DejaVuSans-6f" x="3603.386719"/>
     <use xlink:href="#DejaVuSans-72" x="3664.568359"/>
     <use xlink:href="#DejaVuSans-79" x="3705.681641"/>
    </g>
   </g>
   <g id="legend_1">
    <g id="text_16">
     <!-- Metric -->
     <g transform="translate(145.132656 469.43952) scale(0.1 -0.1)">
      <use xlink:href="#DejaVuSans-4d"/>
      <use xlink:href="#DejaVuSans-65" x="86.279297"/>
      <use xlink:href="#DejaVuSans-74" x="147.802734"/>
      <use xlink:href="#DejaVuSans-72" x="187.011719"/>
      <use xlink:href="#DejaVuSans-69" x="228.125"/>
      <use xlink:href="#DejaVuSans-63" x="255.908203"/>
     </g>
    </g>
    <g id="line2d_37">
     <path d="M 53.749063 480.617645 
L 63.749063 480.617645 
L 73.749063 480.617645 
" style="fill: none; stroke: #009e73; stroke-width: 2.2; stroke-linecap: square"/>
    </g>
    <g id="text_17">
     <!-- Average weighted combined F1 -->
     <g transform="translate(81.749063 484.117645) scale(0.1 -0.1)">
      <use xlink:href="#DejaVuSans-41"/>
      <use xlink:href="#DejaVuSans-76" x="62.533203"/>
      <use xlink:href="#DejaVuSans-65" x="121.712891"/>
      <use xlink:href="#DejaVuSans-72" x="183.236328"/>
      <use xlink:href="#DejaVuSans-61" x="224.349609"/>
      <use xlink:href="#DejaVuSans-67" x="285.628906"/>
      <use xlink:href="#DejaVuSans-65" x="349.105469"/>
      <use xlink:href="#DejaVuSans-20" x="410.628906"/>
      <use xlink:href="#DejaVuSans-77" x="442.416016"/>
      <use xlink:href="#DejaVuSans-65" x="524.203125"/>
      <use xlink:href="#DejaVuSans-69" x="585.726562"/>
      <use xlink:href="#DejaVuSans-67" x="613.509766"/>
      <use xlink:href="#DejaVuSans-68" x="676.986328"/>
      <use xlink:href="#DejaVuSans-74" x="740.365234"/>
      <use xlink:href="#DejaVuSans-65" x="779.574219"/>
      <use xlink:href="#DejaVuSans-64" x="841.097656"/>
      <use xlink:href="#DejaVuSans-20" x="904.574219"/>
      <use xlink:href="#DejaVuSans-63" x="936.361328"/>
      <use xlink:href="#DejaVuSans-6f" x="991.341797"/>
      <use xlink:href="#DejaVuSans-6d" x="1052.523438"/>
      <use xlink:href="#DejaVuSans-62" x="1149.935547"/>
      <use xlink:href="#DejaVuSans-69" x="1213.412109"/>
      <use xlink:href="#DejaVuSans-6e" x="1241.195312"/>
      <use xlink:href="#DejaVuSans-65" x="1304.574219"/>
      <use xlink:href="#DejaVuSans-64" x="1366.097656"/>
      <use xlink:href="#DejaVuSans-20" x="1429.574219"/>
      <use xlink:href="#DejaVuSans-46" x="1461.361328"/>
      <use xlink:href="#DejaVuSans-31" x="1518.880859"/>
     </g>
    </g>
    <g id="line2d_38">
     <path d="M 53.749063 495.29577 
L 63.749063 495.29577 
L 73.749063 495.29577 
" style="fill: none; stroke: #d55e00; stroke-width: 2.2; stroke-linecap: square"/>
    </g>
    <g id="text_18">
     <!-- Average weighted combined G-mean -->
     <g transform="translate(81.749063 498.79577) scale(0.1 -0.1)">
      <use xlink:href="#DejaVuSans-41"/>
      <use xlink:href="#DejaVuSans-76" x="62.533203"/>
      <use xlink:href="#DejaVuSans-65" x="121.712891"/>
      <use xlink:href="#DejaVuSans-72" x="183.236328"/>
      <use xlink:href="#DejaVuSans-61" x="224.349609"/>
      <use xlink:href="#DejaVuSans-67" x="285.628906"/>
      <use xlink:href="#DejaVuSans-65" x="349.105469"/>
      <use xlink:href="#DejaVuSans-20" x="410.628906"/>
      <use xlink:href="#DejaVuSans-77" x="442.416016"/>
      <use xlink:href="#DejaVuSans-65" x="524.203125"/>
      <use xlink:href="#DejaVuSans-69" x="585.726562"/>
      <use xlink:href="#DejaVuSans-67" x="613.509766"/>
      <use xlink:href="#DejaVuSans-68" x="676.986328"/>
      <use xlink:href="#DejaVuSans-74" x="740.365234"/>
      <use xlink:href="#DejaVuSans-65" x="779.574219"/>
      <use xlink:href="#DejaVuSans-64" x="841.097656"/>
      <use xlink:href="#DejaVuSans-20" x="904.574219"/>
      <use xlink:href="#DejaVuSans-63" x="936.361328"/>
      <use xlink:href="#DejaVuSans-6f" x="991.341797"/>
      <use xlink:href="#DejaVuSans-6d" x="1052.523438"/>
      <use xlink:href="#DejaVuSans-62" x="1149.935547"/>
      <use xlink:href="#DejaVuSans-69" x="1213.412109"/>
      <use xlink:href="#DejaVuSans-6e" x="1241.195312"/>
      <use xlink:href="#DejaVuSans-65" x="1304.574219"/>
      <use xlink:href="#DejaVuSans-64" x="1366.097656"/>
      <use xlink:href="#DejaVuSans-20" x="1429.574219"/>
      <use xlink:href="#DejaVuSans-47" x="1461.361328"/>
      <use xlink:href="#DejaVuSans-2d" x="1538.851562"/>
      <use xlink:href="#DejaVuSans-6d" x="1574.935547"/>
      <use xlink:href="#DejaVuSans-65" x="1672.347656"/>
      <use xlink:href="#DejaVuSans-61" x="1733.871094"/>
      <use xlink:href="#DejaVuSans-6e" x="1795.150391"/>
     </g>
    </g>
   </g>
   <g id="legend_2">
    <g id="text_19">
     <!-- Granularity -->
     <g transform="translate(778.71827 454.761395) scale(0.1 -0.1)">
      <use xlink:href="#DejaVuSans-47"/>
      <use xlink:href="#DejaVuSans-72" x="77.490234"/>
      <use xlink:href="#DejaVuSans-61" x="118.603516"/>
      <use xlink:href="#DejaVuSans-6e" x="179.882812"/>
      <use xlink:href="#DejaVuSans-75" x="243.261719"/>
      <use xlink:href="#DejaVuSans-6c" x="306.640625"/>
      <use xlink:href="#DejaVuSans-61" x="334.423828"/>
      <use xlink:href="#DejaVuSans-72" x="395.703125"/>
      <use xlink:href="#DejaVuSans-69" x="436.816406"/>
      <use xlink:href="#DejaVuSans-74" x="464.599609"/>
      <use xlink:href="#DejaVuSans-79" x="503.808594"/>
     </g>
    </g>
    <g id="line2d_39">
     <path d="M 757.533895 465.93952 
L 767.533895 465.93952 
L 777.533895 465.93952 
" style="fill: none; stroke: #4d4d4d; stroke-width: 2.2; stroke-linecap: square"/>
     <defs>
      <path id="m3ef4e65a8e" d="M 0 2.75 
C 0.729309 2.75 1.428845 2.460243 1.944544 1.944544 
C 2.460243 1.428845 2.75 0.729309 2.75 0 
C 2.75 -0.729309 2.460243 -1.428845 1.944544 -1.944544 
C 1.428845 -2.460243 0.729309 -2.75 0 -2.75 
C -0.729309 -2.75 -1.428845 -2.460243 -1.944544 -1.944544 
C -2.460243 -1.428845 -2.75 -0.729309 -2.75 0 
C -2.75 0.729309 -2.460243 1.428845 -1.944544 1.944544 
C -1.428845 2.460243 -0.729309 2.75 0 2.75 
z
" style="stroke: #4d4d4d"/>
     </defs>
     <g>
      <use xlink:href="#m3ef4e65a8e" x="767.533895" y="465.93952" style="fill: #4d4d4d; stroke: #4d4d4d"/>
     </g>
    </g>
    <g id="text_20">
     <!-- Global -->
     <g transform="translate(785.533895 469.43952) scale(0.1 -0.1)">
      <use xlink:href="#DejaVuSans-47"/>
      <use xlink:href="#DejaVuSans-6c" x="77.490234"/>
      <use xlink:href="#DejaVuSans-6f" x="105.273438"/>
      <use xlink:href="#DejaVuSans-62" x="166.455078"/>
      <use xlink:href="#DejaVuSans-61" x="229.931641"/>
      <use xlink:href="#DejaVuSans-6c" x="291.210938"/>
     </g>
    </g>
    <g id="line2d_40">
     <path d="M 757.533895 480.617645 
L 767.533895 480.617645 
L 777.533895 480.617645 
" style="fill: none; stroke-dasharray: 8.14,3.52; stroke-dashoffset: 0; stroke: #4d4d4d; stroke-width: 2.2"/>
     <defs>
      <path id="mffe65177f7" d="M -2.75 2.75 
L 2.75 2.75 
L 2.75 -2.75 
L -2.75 -2.75 
z
" style="stroke: #4d4d4d; stroke-linejoin: miter"/>
     </defs>
     <g>
      <use xlink:href="#mffe65177f7" x="767.533895" y="480.617645" style="fill: #4d4d4d; stroke: #4d4d4d; stroke-linejoin: miter"/>
     </g>
    </g>
    <g id="text_21">
     <!-- By country -->
     <g transform="translate(785.533895 484.117645) scale(0.1 -0.1)">
      <defs>
       <path id="DejaVuSans-42" d="M 1259 2228 
L 1259 519 
L 2272 519 
Q 2781 519 3026 730 
Q 3272 941 3272 1375 
Q 3272 1813 3026 2020 
Q 2781 2228 2272 2228 
L 1259 2228 
z
M 1259 4147 
L 1259 2741 
L 2194 2741 
Q 2656 2741 2882 2914 
Q 3109 3088 3109 3444 
Q 3109 3797 2882 3972 
Q 2656 4147 2194 4147 
L 1259 4147 
z
M 628 4666 
L 2241 4666 
Q 2963 4666 3353 4366 
Q 3744 4066 3744 3513 
Q 3744 3084 3544 2831 
Q 3344 2578 2956 2516 
Q 3422 2416 3680 2098 
Q 3938 1781 3938 1306 
Q 3938 681 3513 340 
Q 3088 0 2303 0 
L 628 0 
L 628 4666 
z
" transform="scale(0.015625)"/>
      </defs>
      <use xlink:href="#DejaVuSans-42"/>
      <use xlink:href="#DejaVuSans-79" x="68.603516"/>
      <use xlink:href="#DejaVuSans-20" x="127.783203"/>
      <use xlink:href="#DejaVuSans-63" x="159.570312"/>
      <use xlink:href="#DejaVuSans-6f" x="214.550781"/>
      <use xlink:href="#DejaVuSans-75" x="275.732422"/>
      <use xlink:href="#DejaVuSans-6e" x="339.111328"/>
      <use xlink:href="#DejaVuSans-74" x="402.490234"/>
      <use xlink:href="#DejaVuSans-72" x="441.699219"/>
      <use xlink:href="#DejaVuSans-79" x="482.8125"/>
     </g>
    </g>
    <g id="line2d_41">
     <path d="M 757.533895 495.29577 
L 767.533895 495.29577 
L 777.533895 495.29577 
" style="fill: none; stroke-dasharray: 2.2,3.63; stroke-dashoffset: 0; stroke: #4d4d4d; stroke-width: 2.2"/>
     <defs>
      <path id="m6521826b48" d="M 0 -2.75 
L -2.75 2.75 
L 2.75 2.75 
z
" style="stroke: #4d4d4d; stroke-linejoin: miter"/>
     </defs>
     <g>
      <use xlink:href="#m6521826b48" x="767.533895" y="495.29577" style="fill: #4d4d4d; stroke: #4d4d4d; stroke-linejoin: miter"/>
     </g>
    </g>
    <g id="text_22">
     <!-- By competitor -->
     <g transform="translate(785.533895 498.79577) scale(0.1 -0.1)">
      <use xlink:href="#DejaVuSans-42"/>
      <use xlink:href="#DejaVuSans-79" x="68.603516"/>
      <use xlink:href="#DejaVuSans-20" x="127.783203"/>
      <use xlink:href="#DejaVuSans-63" x="159.570312"/>
      <use xlink:href="#DejaVuSans-6f" x="214.550781"/>
      <use xlink:href="#DejaVuSans-6d" x="275.732422"/>
      <use xlink:href="#DejaVuSans-70" x="373.144531"/>
      <use xlink:href="#DejaVuSans-65" x="436.621094"/>
      <use xlink:href="#DejaVuSans-74" x="498.144531"/>
      <use xlink:href="#DejaVuSans-69" x="537.353516"/>
      <use xlink:href="#DejaVuSans-74" x="565.136719"/>
      <use xlink:href="#DejaVuSans-6f" x="604.345703"/>
      <use xlink:href="#DejaVuSans-72" x="665.527344"/>
     </g>
    </g>
   </g>
  </g>
  <g id="text_23">
   <!-- Z-score Performance Across Granularities -->
   <g transform="translate(249.761948 20.877187) scale(0.18 -0.18)">
    <defs>
     <path id="DejaVuSans-5a" d="M 359 4666 
L 4025 4666 
L 4025 4184 
L 1075 531 
L 4097 531 
L 4097 0 
L 288 0 
L 288 481 
L 3238 4134 
L 359 4134 
L 359 4666 
z
" transform="scale(0.015625)"/>
     <path id="DejaVuSans-50" d="M 1259 4147 
L 1259 2394 
L 2053 2394 
Q 2494 2394 2734 2622 
Q 2975 2850 2975 3272 
Q 2975 3691 2734 3919 
Q 2494 4147 2053 4147 
L 1259 4147 
z
M 628 4666 
L 2053 4666 
Q 2838 4666 3239 4311 
Q 3641 3956 3641 3272 
Q 3641 2581 3239 2228 
Q 2838 1875 2053 1875 
L 1259 1875 
L 1259 0 
L 628 0 
L 628 4666 
z
" transform="scale(0.015625)"/>
    </defs>
    <use xlink:href="#DejaVuSans-5a"/>
    <use xlink:href="#DejaVuSans-2d" x="66.755859"/>
    <use xlink:href="#DejaVuSans-73" x="102.839844"/>
    <use xlink:href="#DejaVuSans-63" x="154.939453"/>
    <use xlink:href="#DejaVuSans-6f" x="209.919922"/>
    <use xlink:href="#DejaVuSans-72" x="271.101562"/>
    <use xlink:href="#DejaVuSans-65" x="309.964844"/>
    <use xlink:href="#DejaVuSans-20" x="371.488281"/>
    <use xlink:href="#DejaVuSans-50" x="403.275391"/>
    <use xlink:href="#DejaVuSans-65" x="459.953125"/>
    <use xlink:href="#DejaVuSans-72" x="521.476562"/>
    <use xlink:href="#DejaVuSans-66" x="562.589844"/>
    <use xlink:href="#DejaVuSans-6f" x="597.794922"/>
    <use xlink:href="#DejaVuSans-72" x="658.976562"/>
    <use xlink:href="#DejaVuSans-6d" x="698.339844"/>
    <use xlink:href="#DejaVuSans-61" x="795.751953"/>
    <use xlink:href="#DejaVuSans-6e" x="857.03125"/>
    <use xlink:href="#DejaVuSans-63" x="920.410156"/>
    <use xlink:href="#DejaVuSans-65" x="975.390625"/>
    <use xlink:href="#DejaVuSans-20" x="1036.914062"/>
    <use xlink:href="#DejaVuSans-41" x="1068.701172"/>
    <use xlink:href="#DejaVuSans-63" x="1135.359375"/>
    <use xlink:href="#DejaVuSans-72" x="1190.339844"/>
    <use xlink:href="#DejaVuSans-6f" x="1229.203125"/>
    <use xlink:href="#DejaVuSans-73" x="1290.384766"/>
    <use xlink:href="#DejaVuSans-73" x="1342.484375"/>
    <use xlink:href="#DejaVuSans-20" x="1394.583984"/>
    <use xlink:href="#DejaVuSans-47" x="1426.371094"/>
    <use xlink:href="#DejaVuSans-72" x="1503.861328"/>
    <use xlink:href="#DejaVuSans-61" x="1544.974609"/>
    <use xlink:href="#DejaVuSans-6e" x="1606.253906"/>
    <use xlink:href="#DejaVuSans-75" x="1669.632812"/>
    <use xlink:href="#DejaVuSans-6c" x="1733.011719"/>
    <use xlink:href="#DejaVuSans-61" x="1760.794922"/>
    <use xlink:href="#DejaVuSans-72" x="1822.074219"/>
    <use xlink:href="#DejaVuSans-69" x="1863.1875"/>
    <use xlink:href="#DejaVuSans-74" x="1890.970703"/>
    <use xlink:href="#DejaVuSans-69" x="1930.179688"/>
    <use xlink:href="#DejaVuSans-65" x="1957.962891"/>
    <use xlink:href="#DejaVuSans-73" x="2019.486328"/>
   </g>
  </g>
 </g>
 <defs>
  <clipPath id="p7f4c8af6af">
   <rect x="44.749063" y="54.778605" width="820.450457" height="455.096853"/>
  </clipPath>
 </defs>
</svg>
